
<svg
   xmlns:svg="http://www.w3.org/2000/svg"
   xmlns="http://www.w3.org/2000/svg"
   viewBox="0 0 100 50"
   version="1.1"
   id="svg-ehp-logo">
  
  <g transform="translate(-3.4352496,37.135264)">
    <path
       class="ehp-logo-white"
       d="M 43.60888,-34.832372 V 2.1893716 h 3.774172 V -11.081777 c 0,-4.939522 2.667628,-7.23462 6.373311,-7.23462 3.409159,0 5.386513,1.995306 5.386513,6.336052 V 2.1893716 h 7.706155 V -13.178435 c 0,-8.182597 -4.741677,-11.873376 -11.016399,-11.873376 v -0.0019 c -3.409159,0 -6.374394,1.097424 -8.44958,3.192987 v -12.971648 z"
       style="stroke-width:0.978257;stroke-opacity:1" />
    <path
       class="ehp-logo-red"
       d="M 39.11015,-35.3215 V 2.6785001 h 4.04123 V -35.3215 Z"
       style="stroke-width:1.48103" />
  </g>
  <g transform="translate(0.46289978)">
    <path
       class="ehp-logo-white"
       d="m 83.236724,11.066071 c -3.55776,0 -6.424398,1.162439 -8.351506,3.537837 v -3.133292 h -3.428452 v 36.996572 h 3.77453 V 35.782316 c 1.976566,2.223836 4.694665,3.284998 8.005427,3.284998 7.461432,0 13.242232,-5.458014 13.242232,-13.999649 0,-8.541636 -5.780897,-14.001594 -13.242231,-14.001594 z m -1.334872,6.468857 c 3.854215,0 6.769435,2.830383 6.769434,7.530792 0,4.700409 -2.915219,7.530792 -6.769434,7.530792 -3.854215,0 -6.769434,-2.830383 -6.769435,-7.530792 0,-4.700409 2.915219,-7.530792 6.769435,-7.530792 z"
       style="stroke-width:0.984632;stroke-opacity:1" />
    <path
       class="ehp-logo-red"
       d="m 66.947317,10.959504 v 38 h 4.04123 v -38 z"
       style="fill-opacity:1;stroke-width:1.4911" />
  </g>
  <g transform="translate(-4.0117981,-0.6171997)">
    <path
       class="ehp-logo-white"
       d="m 22.95119,12.811754 c 0.0898,0.08525 -0.685955,-0.108655 -0.935602,-0.0049 -6.755609,1.168941 -11.315554,6.691303 -11.315554,13.596434 -1e-6,7.147951 5.106722,12.522794 13.142713,13.392303 4.431596,-0.177942 7.899085,-1.609727 10.252905,-4.212824 l -4.180627,-4.397048 c -1.863518,1.709788 -3.928246,2.539726 -6.799091,2.539726 -4.129927,0 -7.001076,-2.001975 -7.756546,-5.274959 h 20.499996 c 0.05036,-0.635068 0.151178,-1.466576 0.151178,-2.052835 h -0.002 c 0,-8.075639 -5.615675,-13.149743 -13.057434,-13.585931 z m -0.99428,5.720491 c 3.525592,0 6.093988,2.148586 6.647913,5.470466 H 15.258604 c 0.554024,-3.370679 3.122404,-5.470466 6.698306,-5.470466 z"
       style="stroke-width:0.977307;stroke-opacity:1" />
    <path
       class="ehp-logo-red"
       style="fill-opacity:1;stroke-width:0.997879"
       d="m 21.568017,12.233765 c -8.3237,0 -14.5664061,5.864294 -14.5664061,14.000972 0,8.086292 6.1402781,13.999027 15.5800781,13.999027 0.339586,0 0.671339,-0.01246 1,-0.02722 -8.134882,-0.8773 -13.30664,-6.450411 -13.30664,-13.864836 0,-7.143756 4.813349,-12.531024 11.621093,-13.740362 0.25906,-0.110573 0.476867,-0.219229 0.746094,-0.330625 -0.3548,-0.02171 -0.711509,-0.03695 -1.074219,-0.03695 z" />
  </g>
</svg>
