<?xml version="1.0" encoding="UTF-8"?>
<svg 
  id="svg-ehp-logo"
  version="1.1" 
  viewBox="0 0 105.83333 52.916668" 
  xmlns="http://www.w3.org/2000/svg" 
  xmlns:cc="http://creativecommons.org/ns#" 
  xmlns:dc="http://purl.org/dc/elements/1.1/" 
  xmlns:rdf="http://www.w3.org/1999/02/22-rdf-syntax-ns#" 
  xmlns:xlink="http://www.w3.org/1999/xlink"
>
  <g id="svg-ehp-main-color">
    <path 
      d="m36.434 26.941c0-8.7805-6.192-14.16-14.211-14.16-8.3237 0-14.566 5.8875-14.566 14.059 0 8.1207 6.1413 14.059 15.582 14.059 4.9232 0 8.7297-1.5226 11.267-4.4156l-4.2126-4.5679c-1.8779 1.7764-3.9588 2.6392-6.8518 2.6392-4.1618 0-7.0548-2.0809-7.8161-5.4814h20.657c0.05075-0.65981 0.15226-1.5226 0.15226-2.1317zm-14.16-8.1714c3.5528 0 6.1413 2.2332 6.6995 5.6845h-13.45c0.5583-3.502 3.1468-5.6845 6.7503-5.6845z" 
    />
    <path 
      d="m55.63 12.78c-3.502 0-6.5473 1.1166-8.679 3.2483v-13.196h-7.9176v37.66h7.9176v-13.501c0-5.0247 2.7407-7.3594 6.5473-7.3594 3.502 0 5.5322 2.0302 5.5322 6.4458v14.414h7.9176v-15.632c0-8.3237-4.8724-12.079-11.318-12.079z" 
    />
    <path 
      d="m85.988 12.78c-3.6543 0-6.598 1.1674-8.5774 3.5528v-3.1468h-7.5624v37.152h7.9176v-12.739c2.0302 2.2332 4.8216 3.299 8.2222 3.299 7.6639 0 13.602-5.4814 13.602-14.059s-5.9382-14.059-13.602-14.059zm-1.3704 21.621c-3.9588 0-6.9533-2.8422-6.9533-7.5624s2.9945-7.5624 6.9533-7.5624c3.9588 0 6.9533 2.8422 6.9533 7.5624s-2.9945 7.5624-6.9533 7.5624z" 
    />
  </g>
  <g id="svg-ehp-accent-color">
    <path 
      d="m39.033 2.8328v37.659h1.8591v-37.659z" 
    />
    <path 
      d="m69.848 13.186v37.152h1.8591v-37.152z" 
    />
    <path 
      d="m22.223 12.78c-8.3237 0-14.567 5.8877-14.567 14.059 0 8.1207 6.1412 14.059 15.581 14.059 0.36744 0 0.72665-0.0115 1.0816-0.0284-8.8383-0.42763-14.525-6.2176-14.525-14.031 0-7.819 5.7175-13.543 13.503-14.022-0.3548-0.0218-0.71219-0.0367-1.0749-0.0367z" 
    />
  </g>
</svg>