<?xml version="1.0" encoding="UTF-8"?>
<!-- Created with Inkscape (http://www.inkscape.org/) -->
<svg version="1.1" viewBox="0 0 79.374998 79.375002" xmlns="http://www.w3.org/2000/svg" xmlns:cc="http://creativecommons.org/ns#" xmlns:dc="http://purl.org/dc/elements/1.1/" xmlns:rdf="http://www.w3.org/1999/02/22-rdf-syntax-ns#">
 
 <rect x=".16817" y="-8.1545e-7" width="79.375" height="79.375" ry=".73218" fill="#333" style="paint-order:markers fill stroke"/>
 <path d="M 78.241,39.6 A 38.459,38.459 0 0 0 39.782,1.141 38.459,38.459 0 0 0 1.323,39.6 38.459,38.459 0 0 0 39.782,78.059 38.459,38.459 0 0 0 78.241,39.6 Z" fill="none" style="paint-order:markers fill stroke"/>
 <path class="st3" d="m52.45 24.6c0.08233 0.0275 0.16464 0.0275 0.24696 0.0549 0 0-0.08232-0.0274-0.24696-0.0549z" fill="#ccac8d" stroke-width=".26458"/>
 <path class="st3" d="m52.395 24.57h0.05488c0 0.0275-0.02744 0.0275-0.05488 0z" fill="#ccac8d" stroke-width=".26458"/>
 <path d="m32.072 72.264c-2.3015-0.14016-4.5539-0.74077-6.648-1.7728-1.7513-0.86305-3.1184-1.8285-4.532-3.2006-1.5721-1.5259-2.6521-3.0056-3.6071-4.9416-0.85563-1.7346-1.4089-3.5478-1.6842-5.5198-0.15725-1.1261-0.1544-3.5146 0.0055-4.6886 0.06807-0.49929 0.14145-0.97844 0.16312-1.0648 0.02217-0.08843 3.3875-3.1826 7.7056-7.0849 4.2164-3.8103 7.7085-6.952 7.76-6.9812 0.05598-0.03181 3.2701 1.3935 7.9679 3.5333l7.8741 3.5867 1.7662 3.3594 1.7662 3.3594-1.2766 6.6585c-0.70213 3.6622-1.295 6.7475-1.3173 6.8562-0.05671 0.27505-1.0666 1.5809-1.902 2.4596-0.38407 0.40392-1.0111 0.99626-1.3932 1.3162-0.79938 0.66923-2.1002 1.5582-2.9899 2.0431-1.3222 0.72069-3.0885 1.3754-4.6479 1.7228-1.4194 0.31616-3.3932 0.45767-5.0103 0.35919z" fill="none" stroke-width=".99999"/>
 <path d="m34.108 74.196c1.6678-0.20441 3.3888-0.67865 4.9657-1.3683 1.5183-0.66403 3.055-1.6429 4.3909-2.7969 0.88848-0.76754 2.0078-1.9772 2.6263-2.8384l0.39216-0.546 1.2784-6.6613c0.70311-3.6638 1.2784-6.7416 1.2784-6.8397 0-0.09814-0.76524-1.6418-1.7005-3.4303l-1.7005-3.2519-7.7961-3.5531c-4.2878-1.9542-7.8335-3.5438-7.8793-3.5323-0.04581 0.01136-3.5134 3.1212-7.7059 6.9106-5.1044 4.6137-7.6396 6.9518-7.6738 7.0774-0.15504 0.56812-0.29428 2.1409-0.29444 3.3261-3.63e-4 2.3611 0.39218 4.4129 1.2617 6.5955 0.55133 1.3839 1.3645 2.8179 2.3145 4.0819 0.91391 1.2159 2.3531 2.6261 3.6829 3.6084 0.54156 0.40007 1.808 1.1691 2.4961 1.5156 0.86315 0.43471 2.1379 0.91973 3.1365 1.1933 2.2937 0.62844 4.5824 0.79672 6.927 0.50937z" fill="#333" stroke="#46c2ff" stroke-linecap="round" stroke-linejoin="round" stroke-width="1.3229"/>
 <path d="m54.638 66.23c-0.72362-0.0978-1.7109-0.39243-2.4052-0.71784-0.82787-0.38795-1.6275-0.91628-1.6272-1.0751 0-0.18113 2.3023-12.156 2.345-12.198 0.01927-0.01927 2.4667 0.53356 5.4389 1.2286l5.4039 1.2635 0.13333 0.39288c0.27467 0.80933 0.36227 1.4513 0.36099 2.6454-9.09e-4 1.2356-0.07961 1.749-0.42256 2.7706-0.38656 1.1516-1.0037 2.1489-1.9179 3.0996-0.70178 0.72973-1.3311 1.218-2.1139 1.64-1.1986 0.64621-2.3091 0.93936-3.742 0.98762-0.51953 0.01754-1.1735 9.09e-4 -1.4532-0.0369z" fill="none" stroke-width=".99999"/>
 <path d="m59.233 71.802c1.3477-0.16526 2.6428-0.63649 3.7264-1.356 0.68077-0.45199 1.5684-1.2994 2.0801-1.9863 1.5136-2.0311 2.0153-4.6334 1.3783-7.1493-0.0817-0.32257-0.18714-0.62352-0.23438-0.66878-0.12771-0.12237-10.511-2.5302-10.579-2.4533-0.09385 0.10567-2.3419 11.965-2.2799 12.027 0.15201 0.15152 1.3182 0.80328 1.785 0.99762 0.92228 0.38394 2.1011 0.63292 3.1055 0.65591 0.22085 0.0055 0.67862-0.02481 1.0172-0.06634z" fill="#333" stroke="#46c2ff" stroke-linecap="round" stroke-linejoin="round" stroke-width="1.3229"/>
 <path d="m58.774 50.98c-3.2024-0.75168-5.8612-1.3796-5.9084-1.3952-0.12083-0.04026-3.2091-5.9579-3.1846-6.1022 0.01109-0.06525 3.4772-3.147 7.7026-6.8484 5.0966-4.4646 7.7352-6.7298 7.839-6.7298 0.19802 0 1.3232 0.53308 1.9899 0.94282 2.7412 1.6845 4.7203 4.4687 5.4159 7.6188 0.07651 0.34652 0.17728 1.0659 0.22395 1.5986 0.1376 1.5707-0.06737 3.2083-0.59504 4.7544-0.31169 0.91319-1.0541 2.3435-1.6478 3.1744-0.63038 0.88234-1.8356 2.0862-2.7104 2.7074-0.75923 0.53911-1.9435 1.1806-2.7117 1.4687-0.2745 0.10297-0.51973 0.18496-0.54496 0.18221-0.02517-0.0027-2.666-0.62003-5.8685-1.3717z" fill="none" stroke-width=".99999"/>
 <path d="m69.308 53.807c1.9378-0.84364 3.6651-2.2528 4.9214-4.0148 0.57814-0.81091 1.2717-2.1694 1.5745-3.0837 0.11911-0.35968 0.2912-0.99726 0.38242-1.4169 0.14323-0.65882 0.16586-0.97117 0.16586-2.2888s-0.02263-1.63-0.16586-2.2888c-0.23975-1.1028-0.53691-1.9516-1.0302-2.9428-0.92046-1.8495-2.2567-3.3568-4.0241-4.5395-0.31562-0.21121-0.94508-0.56251-1.3987-0.78066l-0.82487-0.39665-0.23615 0.19847c-0.12989 0.10916-3.5947 3.1401-7.6996 6.7355l-7.4634 6.537 0.59589 1.1366c0.32774 0.62511 1.0232 1.9536 1.5456 2.9522l0.94972 1.8157 5.7725 1.3566c3.1749 0.74614 5.8542 1.3593 5.9542 1.3626 0.09991 0.0036 0.54132-0.15057 0.98089-0.34196z" fill="#333" stroke="#46c2ff" stroke-linecap="round" stroke-linejoin="round" stroke-width="1.3229"/>
 <path d="m13.669 48.553c-1.674-0.73083-3.4183-2.1081-4.546-3.5896-1.164-1.5292-1.8967-3.1521-2.2745-5.038-0.13609-0.67936-0.16521-1.0641-0.16676-2.2036-0.0018176-1.5747 0.10488-2.3201 0.52178-3.633 0.33297-1.0487 0.83825-2.0913 1.4652-3.0232 0.60496-0.89925 1.2688-1.6644 2.0306-2.3404 1.0401-0.923 2.5881-1.8536 3.7017-2.2255l0.48948-0.16345 5.8855 1.3934c3.237 0.76635 5.9054 1.4153 5.9296 1.4421 0.11468 0.12704 2.7553 5.8696 2.7375 5.9531-0.0259 0.12133-15.02 13.678-15.127 13.677-0.04371-5.09e-4 -0.33483-0.1124-0.64699-0.24867z" fill="none" stroke-width=".99999"/>
 <path d="m19.235 41.937c3.9764-3.5882 7.304-6.5949 7.3949-6.6814l0.16513-0.15731-1.3572-2.9032c-1.639-3.1518-3.2593-2.8835-7.2467-4.3136l-5.8759-1.3875-0.66362 0.26348c-0.80901 0.32121-1.4133 0.64697-2.2258 1.1999-1.2435 0.84629-2.253 1.8705-3.1337 3.1796-2.3962 3.5618-2.6703 8.0398-0.72865 11.902 1.1671 2.3213 3.2941 4.34 5.6539 5.3658 0.47317 0.2057 0.58328 0.2303 0.67656 0.15111 0.06125-0.05199 3.3648-3.0304 7.3412-6.6186z" fill="#333" stroke="#46c2ff" stroke-linecap="round" stroke-linejoin="round" stroke-width="1.3229"/>
 <path d="m39.888 38.02-7.8439-3.5781-1.5112-3.2232c-0.90881-1.9383-1.5112-3.3096-1.5112-3.44 0-0.28474 2.5231-13.407 2.6223-13.639 0.16611-0.38744 1.2903-1.713 2.233-2.6329 1.4561-1.421 2.7277-2.3326 4.4446-3.1863 0.45997-0.22872 1.1398-0.53469 1.5107-0.67996 1.2469-0.4883 2.7913-0.87374 4.3028-1.0739 0.89417-0.11838 3.4021-0.11588 4.287 0.00454 4.0648 0.55198 7.5481 2.2574 10.366 5.075 1.4283 1.4283 2.5249 2.9674 3.4051 4.7791 0.59916 1.2333 0.95536 2.2014 1.2644 3.4372 0.41662 1.6653 0.47881 2.2567 0.46765 4.4466-0.0082 1.6124-0.03626 2.1356-0.14532 2.7101l-0.13513 0.71188-7.9161 6.9357c-4.3539 3.8146-7.9342 6.9347-7.9564 6.9336-0.02208-9.09e-4 -3.5699-1.6123-7.884-3.5802z" fill="none" stroke-width=".99999"/>
 <path d="m57.224 33.157 7.8128-6.8492 0.08116-0.4169c0.18288-0.93973 0.2447-1.9881 0.20882-3.5413-0.03017-1.3081-0.07098-1.7768-0.22456-2.5794-0.35677-1.8652-0.86677-3.3817-1.6587-4.932-0.86874-1.7008-2.2841-3.5842-3.6365-4.8392-0.70727-0.6563-1.9589-1.612-2.7895-2.1298-0.76148-0.47479-1.8707-1.0302-2.7845-1.3942-0.89354-0.35599-2.263-0.74817-3.2738-0.93755-1.7573-0.32928-3.8808-0.37317-5.6416-0.11661-3.4821 0.50737-6.6273 1.9656-9.2718 4.2988-0.81788 0.72161-1.8314 1.8356-2.4237 2.6641l-0.37196 0.52021-1.2852 6.6848c-0.70686 3.6767-1.2894 6.7502-1.2947 6.8302-0.0055 0.07989 0.65511 1.5676 1.4674 3.3061 0.81232 1.7384 1.5029 3.1899 1.5346 3.2255 0.11708 0.13146 15.582 7.1447 15.659 7.1011 0.0439-0.02481 3.5956-3.1273 7.8926-6.8943z" fill="#333" stroke="#46c2ff" stroke-linecap="round" stroke-linejoin="round" stroke-width="1.3229"/>
 <path d="m20.957 25.169c-2.8574-0.67844-5.2179-1.2555-5.2455-1.2823-0.02763-0.02681-0.14027-0.37569-0.25023-0.77533-0.18723-0.6805-0.19991-0.81884-0.19991-2.1798 0-1.3556 0.01327-1.502 0.19792-2.1798 0.23811-0.87421 0.91928-2.288 1.4189-2.9451 0.46401-0.61017 1.4492-1.5554 2.0376-1.955 0.67729-0.45995 1.832-0.98671 2.6589-1.213 0.66967-0.18326 0.8348-0.19915 2.1072-0.20264 1.1925-0.0036 1.4668 0.01809 2.0132 0.15659 0.34798 0.08825 0.89213 0.26045 1.2092 0.38273 0.58266 0.22469 1.6818 0.84236 1.9212 1.0796 0.12484 0.12374 0.0837 0.36896-1.0354 6.1693-0.64098 3.3223-1.1655 6.0749-1.1655 6.1169 0 0.04199-0.10626 0.07298-0.23614 0.06889-0.12989-0.0045-2.574-0.56258-5.4314-1.241z" fill="none" stroke-width=".99999"/>
 <path d="m25.706 23.037c0.25729-1.2543 2.2552-10.024 2.2396-11.717-2.2995-1.1923-1.5864-0.94818-2.2995-1.1923-1.4801-0.50679-3.1116-0.59938-4.6047-0.26131-1.0688 0.24199-2.1611 0.73294-3.0692 1.3795-0.6406 0.4561-1.5926 1.4432-2.0416 2.1168-0.21618 0.32437-0.5061 0.83444-0.64427 1.1335-0.28829 0.62396-0.58408 1.5971-0.69873 2.2987-0.17532 1.073-0.05635 2.6951 0.27644 3.7681l0.1174 0.37853 1.0958 0.25983c0.60265 0.1429 2.9268 0.69637 5.1648 1.2299s4.1402 0.97381 4.2274 0.97835c0.1345 0.0073 0.17011-0.04917 0.23658-0.37321z" fill="#333" stroke="#46c2ff" stroke-linecap="round" stroke-linejoin="round" stroke-width="1.3229"/>
 <style type="text/css">.st0{fill:#C1272D;}
	.st1{fill:#EFCCA3;}
	.st2{fill:#ED1C24;}
	.st3{fill:#CCAC8D;}
	.st4{fill:#FFFFFF;}
	.st5{fill:#FF931E;}
	.st6{fill:#FFB81E;}
	.st7{fill:#56332B;}
	.st8{fill:#442823;}
	.st9{fill:#7F4A41;}
	.st10{fill:#331712;}
	.st11{fill:#FFCC66;}
	.st12{fill:#CCCCCC;}
	.st13{fill:#B3B3B3;}
	.st14{fill:#989898;}
	.st15{fill:#323232;}
	.st16{fill:#1E1E1E;}
	.st17{fill:#4C4C4C;}
	.st18{fill:#E6E6E6;}
	.st19{fill:#606060;}</style>
</svg>
