<?xml version="1.0" encoding="UTF-8"?>
<!-- Created with Inkscape (http://www.inkscape.org/) -->
<svg version="1.1" viewBox="0 0 79.374998 79.375002" xmlns="http://www.w3.org/2000/svg" xmlns:cc="http://creativecommons.org/ns#" xmlns:dc="http://purl.org/dc/elements/1.1/" xmlns:rdf="http://www.w3.org/1999/02/22-rdf-syntax-ns#">
 <metadata>
  <rdf:RDF>
   <cc:Work rdf:about="">
    <dc:format>image/svg+xml</dc:format>
    <dc:type rdf:resource="http://purl.org/dc/dcmitype/StillImage"/>
    <dc:title/>
   </cc:Work>
  </rdf:RDF>
 </metadata>
 <g transform="translate(0 -217.62)">
  <path d="m78.241 257.22a38.459 38.459 0 0 0 -38.459 -38.459 38.459 38.459 0 0 0 -38.459 38.459 38.459 38.459 0 0 0 38.459 38.459 38.459 38.459 0 0 0 38.459 -38.459z" fill="none" stroke="#0ff" stroke-linecap="round" stroke-linejoin="round" stroke-width=".79375" style="paint-order:markers fill stroke"/>
  <path class="st3" d="m52.45 242.22c0.08233 0.0275 0.16464 0.0275 0.24696 0.0549 0 0-0.08232-0.0274-0.24696-0.0549z" fill="#ccac8d" stroke-width=".26458"/>
  <path class="st3" d="m52.395 242.19h0.05488c0 0.0275-0.02744 0.0275-0.05488 0z" fill="#ccac8d" stroke-width=".26458"/>
  <g transform="matrix(.82297 0 0 .82297 147.47 43.061)" fill="none">
   <path d="m-138.44 296.04c-2.5324-0.15422-5.0108-0.81508-7.315-1.9506-1.927-0.94963-3.4312-2.0119-4.9867-3.5217-1.7298-1.679-2.9182-3.3071-3.969-5.4373-0.94147-1.9086-1.5502-3.9037-1.8532-6.0735-0.17303-1.2391-0.16989-3.8672 6e-3 -5.159 0.0749-0.54938 0.15564-1.0766 0.17948-1.1716 0.0244-0.0973 3.7273-3.5019 8.4787-7.7957 4.6394-4.1926 8.4818-7.6494 8.5385-7.6816 0.0616-0.035 3.5982 1.5333 8.7673 3.8878l8.6641 3.9465 1.9434 3.6964 1.9434 3.6964-1.4047 7.3265c-0.77257 4.0296-1.4249 7.4244-1.4495 7.544-0.0624 0.30264-1.1736 1.7395-2.0928 2.7063-0.4226 0.44444-1.1125 1.0962-1.533 1.4482-0.87958 0.73637-2.3109 1.7145-3.2899 2.2481-1.4548 0.79299-3.3983 1.5134-5.1142 1.8956-1.5618 0.34788-3.7336 0.50358-5.5129 0.39522z" stroke-width="1.2151"/>
   <path d="m-134.72 295.76c1.8351-0.22492 3.7288-0.74673 5.4639-1.5056 1.6706-0.73065 3.3615-1.8077 4.8314-3.0775 0.97762-0.84454 2.2092-2.1756 2.8898-3.1231l0.4315-0.60077 1.4066-7.3296c0.77365-4.0313 1.4066-7.4179 1.4066-7.5259 0-0.10798-0.84201-1.8065-1.8711-3.7744l-1.8711-3.5781-8.5782-3.9095c-4.718-2.1502-8.6194-3.8993-8.6698-3.8867-0.0504 0.0125-3.8659 3.4343-8.479 7.6039-5.6165 5.0765-8.406 7.6492-8.4437 7.7874-0.17059 0.62511-0.3238 2.3557-0.32398 3.6598-4e-4 2.598 0.43152 4.8556 1.3883 7.2572 0.60664 1.5227 1.5014 3.1006 2.5467 4.4914 1.0056 1.3379 2.5892 2.8895 4.0524 3.9704 0.59589 0.44021 1.9894 1.2864 2.7465 1.6677 0.94974 0.47832 2.3524 1.012 3.4512 1.313 2.5238 0.69148 5.0421 0.87665 7.6219 0.56047z" stroke="#0ff" stroke-opacity=".91414" stroke-width=".9645"/>
   <path d="m-113.61 289.4c-0.79622-0.10761-1.8825-0.4318-2.6465-0.78985-0.91092-0.42687-1.7908-1.0082-1.7905-1.1829 0-0.1993 2.5333-13.375 2.5803-13.422 0.0212-0.0212 2.7142 0.58709 5.9845 1.3518l5.946 1.3903 0.14671 0.43229c0.30223 0.89052 0.39861 1.5969 0.39721 2.9108-1e-3 1.3596-0.0876 1.9245-0.46495 3.0486-0.42534 1.2671-1.1044 2.3645-2.1103 3.4105-0.77218 0.80294-1.4646 1.3402-2.326 1.8045-1.3188 0.71104-2.5408 1.0336-4.1174 1.0867-0.57165 0.0193-1.2912 1e-3 -1.599-0.0406z" stroke-width="1.2151"/>
   <path d="m-111.33 289.24c1.4829-0.18184 2.9079-0.70034 4.1002-1.492 0.74907-0.49733 1.7257-1.4298 2.2888-2.1856 1.6655-2.2349 2.2175-5.0982 1.5166-7.8665-0.0899-0.35493-0.20591-0.68607-0.25789-0.73587-0.14052-0.13465-11.565-2.784-11.64-2.6994-0.10326 0.11627-2.5769 13.165-2.5086 13.233 0.16726 0.16672 1.4505 0.88387 1.9641 1.0977 1.0148 0.42246 2.3119 0.69641 3.4171 0.72171 0.24301 6e-3 0.7467-0.0273 1.1193-0.073z" stroke="#0ff" stroke-opacity=".91414" stroke-width=".9645"/>
   <path d="m-109.06 272.62c-3.5237-0.82709-6.4492-1.518-6.5011-1.5352-0.13295-0.0443-3.5311-6.5556-3.5041-6.7144 0.0122-0.0718 3.8261-3.4627 8.4753-7.5354 5.6079-4.9125 8.5112-7.4049 8.6254-7.4049 0.21788 0 1.4559 0.58656 2.1895 1.0374 3.0162 1.8535 5.1939 4.917 5.9592 8.3831 0.08419 0.38128 0.19507 1.1728 0.24642 1.759 0.1514 1.7283-0.07413 3.5302-0.65474 5.2314-0.34296 1.0048-1.1599 2.5786-1.8131 3.4929-0.69362 0.97085-2.0197 2.2955-2.9823 2.979-0.8354 0.59319-2.1385 1.299-2.9837 1.616-0.30204 0.1133-0.57187 0.20352-0.59963 0.20049-0.0277-3e-3 -2.9335-0.68223-6.4572-1.5093z" stroke-width="1.2151"/>
   <path d="m-101.54 273.51c2.1322-0.92827 4.0328-2.4788 5.4151-4.4176 0.63614-0.89226 1.3993-2.387 1.7325-3.3931 0.13106-0.39576 0.32041-1.0973 0.42079-1.559 0.1576-0.72491 0.1825-1.0686 0.1825-2.5184s-0.0249-1.7935-0.1825-2.5184c-0.2638-1.2134-0.59077-2.1474-1.1336-3.238-1.0128-2.035-2.4831-3.6936-4.4278-4.9949-0.34729-0.2324-1.0399-0.61894-1.539-0.85897l-0.90762-0.43644-0.25984 0.21838c-0.14292 0.12011-3.9553 3.4551-8.472 7.4112l-8.2122 7.1928 0.65567 1.2506c0.36062 0.68782 1.1259 2.1496 1.7007 3.2484l1.045 1.9978 6.3516 1.4927c3.4934 0.82099 6.4415 1.4957 6.5515 1.4993 0.10993 4e-3 0.59563-0.16567 1.0793-0.37626z" stroke="#0ff" stroke-opacity=".91414" stroke-width=".9645"/>
   <path d="m-158.69 269.95c-1.8419-0.80415-3.7612-2.3196-5.0021-3.9497-1.2808-1.6826-2.087-3.4683-2.5027-5.5434-0.14974-0.74751-0.18178-1.1709-0.18349-2.4247-2e-3 -1.7327 0.1154-2.5528 0.57413-3.9975 0.36638-1.1539 0.92235-2.3011 1.6122-3.3265 0.66565-0.98946 1.3961-1.8314 2.2343-2.5752 1.1444-1.0156 2.8477-2.0396 4.0731-2.4488l0.53859-0.17985 6.476 1.5332c3.5618 0.84323 6.4978 1.5573 6.5245 1.5868 0.12619 0.13979 3.0317 6.4584 3.0121 6.5503-0.0285 0.1335-16.527 15.05-16.645 15.049-0.0481-5.6e-4 -0.36842-0.12367-0.7119-0.27362z" stroke-width="1.2151"/>
   <path d="m-149.79 262.67c4.3753-3.9482 8.0368-7.2565 8.1368-7.3517l0.1817-0.17309-1.4934-3.1944c-0.82136-1.7569-1.4968-3.2001-1.5009-3.207-4e-3 -7e-3 -2.9169-0.69965-6.4728-1.5393l-6.4654-1.5267-0.7302 0.28991c-0.89017 0.35343-1.5551 0.71187-2.4491 1.3203-1.3683 0.93119-2.479 2.0582-3.4481 3.4986-2.6366 3.9191-2.9382 8.8464-0.80175 13.096 1.2842 2.5542 3.6246 4.7754 6.2211 5.9041 0.52064 0.22634 0.6418 0.2534 0.74443 0.16627 0.0674-0.0572 3.7024-3.3344 8.0777-7.2826z" stroke="#0ff" stroke-opacity=".91414" stroke-width=".9645"/>
   <path d="m-129.84 258.36-8.6308-3.937-1.6628-3.5465c-0.99999-2.1328-1.6628-3.6416-1.6628-3.7851 0-0.31331 2.7762-14.752 2.8854-15.007 0.18278-0.42631 1.4198-1.8848 2.457-2.897 1.6022-1.5635 3.0014-2.5666 4.8905-3.5059 0.50612-0.25166 1.2542-0.58833 1.6623-0.74817 1.372-0.53729 3.0713-0.96139 4.7345-1.1816 0.98388-0.13026 3.7434-0.1275 4.7171 5e-3 4.4726 0.60735 8.3054 2.4839 11.406 5.5841 1.5716 1.5716 2.7782 3.2651 3.7467 5.2585 0.65927 1.357 1.0512 2.4222 1.3913 3.782 0.45842 1.8324 0.52685 2.4831 0.51457 4.8927-9e-3 1.7742-0.0399 2.3498-0.1599 2.982l-0.14869 0.7833-8.7103 7.6315c-4.7907 4.1973-8.7302 7.6304-8.7546 7.6292-0.0243-1e-3 -3.9281-1.774-8.675-3.9394z" stroke-width="1.2151"/>
   <path d="m-112.43 254.49 8.5966-7.5363 0.0893-0.45872c0.20123-1.034 0.26925-2.1876 0.22977-3.8966-0.0332-1.4393-0.0781-1.955-0.24709-2.8382-0.39256-2.0523-0.95373-3.7209-1.8251-5.4268-0.9559-1.8714-2.5133-3.9438-4.0013-5.3247-0.77822-0.72214-2.1554-1.7737-3.0694-2.3435-0.83787-0.52242-2.0584-1.1336-3.0639-1.5341-0.98318-0.3917-2.49-0.82323-3.6022-1.0316-1.9336-0.36231-4.2701-0.41061-6.2076-0.12831-3.8314 0.55827-7.2922 2.1628-10.202 4.73-0.89993 0.794-2.0151 2.0198-2.6669 2.9314l-0.40928 0.5724-1.4141 7.3554c-0.77777 4.0455-1.4188 7.4274-1.4246 7.5154-6e-3 0.0879 0.72083 1.7249 1.6146 3.6378 0.89382 1.9128 1.6537 3.5099 1.6886 3.5491 0.12882 0.14465 17.145 7.8614 17.23 7.8135 0.0483-0.0273 3.9563-3.441 8.6844-7.5859z" stroke="#0ff" stroke-opacity=".91414" stroke-width=".9645"/>
   <path d="m-150.67 244.22c-3.1441-0.7465-5.7414-1.3814-5.7718-1.4109-0.0304-0.0295-0.15434-0.41338-0.27533-0.85311-0.20601-0.74877-0.21997-0.90098-0.21997-2.3985 0-1.4916 0.0146-1.6527 0.21777-2.3985 0.262-0.96191 1.0115-2.5175 1.5613-3.2405 0.51056-0.67138 1.5946-1.7114 2.242-2.1511 0.74524-0.50609 2.0158-1.0857 2.9256-1.3347 0.73685-0.20165 0.91855-0.21913 2.3186-0.22297 1.3121-4e-3 1.6139 0.0199 2.2152 0.1723 0.38289 0.0971 0.98163 0.28658 1.3305 0.42113 0.64111 0.24723 1.8505 0.92687 2.1139 1.1879 0.13736 0.13615 0.0921 0.40598-1.1393 6.7882-0.70529 3.6556-1.2824 6.6843-1.2824 6.7305 0 0.0462-0.11692 0.0803-0.25983 0.0758-0.14292-5e-3 -2.8322-0.61902-5.9763-1.3655z" stroke-width="1.2151"/>
   <path d="m-144.52 245.02c0.2831-1.3801 2.4814-12.88 2.4643-12.892-0.78167-0.5435-1.7456-1.0433-2.5302-1.3119-1.6286-0.55763-3.4238-0.65951-5.0667-0.28753-1.176 0.26627-2.3779 0.80647-3.3771 1.5179-0.70487 0.50185-1.7524 1.588-2.2464 2.3292-0.23787 0.35691-0.55688 0.91815-0.70891 1.2472-0.31721 0.68656-0.64268 1.7573-0.76883 2.5293-0.19291 1.1806-0.062 2.9655 0.30417 4.1461l0.12918 0.4165 1.2057 0.2859c0.66311 0.15724 3.2204 0.76623 5.6829 1.3533 2.4625 0.58707 4.5556 1.0715 4.6515 1.0765 0.14799 8e-3 0.18718-0.0541 0.26032-0.41065z" stroke="#0ff" stroke-opacity=".91414" stroke-width=".9645"/>
  </g>
 </g>
 <style type="text/css">.st0{fill:#C1272D;}
	.st1{fill:#EFCCA3;}
	.st2{fill:#ED1C24;}
	.st3{fill:#CCAC8D;}
	.st4{fill:#FFFFFF;}
	.st5{fill:#FF931E;}
	.st6{fill:#FFB81E;}
	.st7{fill:#56332B;}
	.st8{fill:#442823;}
	.st9{fill:#7F4A41;}
	.st10{fill:#331712;}
	.st11{fill:#FFCC66;}
	.st12{fill:#CCCCCC;}
	.st13{fill:#B3B3B3;}
	.st14{fill:#989898;}
	.st15{fill:#323232;}
	.st16{fill:#1E1E1E;}
	.st17{fill:#4C4C4C;}
	.st18{fill:#E6E6E6;}
	.st19{fill:#606060;}</style>
</svg>
