
<svg
  xmlns:svg="http://www.w3.org/2000/svg"
  xmlns="http://www.w3.org/2000/svg"
  id="svg8"
  version="1.1"
  viewBox="0 0 132.29166 52.916668"
  preserveAspectRatio="none"
>
  <defs
     id="defs2">
    <filter
       id="filter889"
       style="color-interpolation-filters:sRGB;">
      <feFlood
         id="feFlood879"
         result="flood"
         flood-color="rgb(0,0,0)"
         flood-opacity="0.498039" />
      <feComposite
         id="feComposite881"
         result="composite1"
         operator="in"
         in2="SourceGraphic"
         in="flood" />
      <feGaussianBlur
         id="feGaussianBlur883"
         result="blur"
         stdDeviation="10"
         in="composite1" />
      <feOffset
         id="feOffset885"
         result="offset"
         dy="2"
         dx="2" />
      <feComposite
         id="feComposite887"
         result="composite2"
         operator="over"
         in2="offset"
         in="SourceGraphic" />
    </filter>
  </defs>
  <metadata
     id="metadata5">
    <rdf:RDF>
      <cc:Work
         rdf:about="">
        <dc:format>image/svg+xml</dc:format>
        <dc:type
           rdf:resource="http://purl.org/dc/dcmitype/StillImage" />
        <dc:title></dc:title>
      </cc:Work>
    </rdf:RDF>
  </metadata>
  <g
     transform="translate(0,-244.08333)"
     id="layer1">
    <g
       id="g1713">
      <path
         style="opacity:1;fill:#00ffff;fill-opacity:1;stroke:none;stroke-width:0.79374999;stroke-linecap:round;stroke-linejoin:round;stroke-miterlimit:4;stroke-dasharray:none;stroke-dashoffset:0;stroke-opacity:1;paint-order:markers fill stroke"
         d="m 0,262.60416 h 132.29167 v 34.39583 H 0 Z"
         id="rect10" />
      <path
         style="opacity:1;fill:#333333;fill-opacity:1;stroke:none;stroke-width:3;stroke-linecap:round;stroke-linejoin:round;stroke-miterlimit:4;stroke-dasharray:none;stroke-dashoffset:0;stroke-opacity:1;paint-order:markers fill stroke;filter:url(#filter889)"
         d="M 0,0 V 67.5 C 14.19956,26.663609 0.51089855,34.643575 0.12890625,67.300781 0.1289068,101.81858 28.11111,129.80078 62.628906,129.80078 96.382621,129.77986 124.02157,102.96234 125.06055,69.224609 125.99409,103.04358 153.66815,129.98011 187.5,130 c 33.24345,-0.0416 60.63718,-26.09898 62.33984,-59.298828 h 0.125 c 1.87418,33.081778 29.24018,58.951628 62.375,58.964848 31.40611,-0.0388 57.90589,-23.37778 61.91211,-54.527348 4.32767,30.567848 31.66482,54.398438 63.31446,54.398438 33.28653,0 60.48598,-26.02535 62.38476,-58.835938 H 500 v -0.998047 c 0.0372,-0.885381 0.0664,-1.771483 0.0664,-2.666016 0,-0.894644 -0.0292,-1.782478 -0.0664,-2.667968 V 0 Z m 0,67.5 v 3.123047 l 0.109375,-0.002 C 0.04692575,69.581803 0.01045603,68.541113 0,67.5 Z"
         transform="matrix(0.26458333,0,0,0.26458333,0,244.08333)"
         id="path841" />
    </g>
  </g>
</svg>
