
<svg
   xmlns:svg="http://www.w3.org/2000/svg"
   xmlns="http://www.w3.org/2000/svg"
   id="expand-svg"
   version="1.1"
   viewBox="0 0 26.458333 26.458334"
>
  <g>
    <path
      d="m 24.789555,17.677503 v 5.708054 c 0,0.677832 -0.545323,1.223155 -1.223153,1.223155 h -5.708059 c -1.090645,0 -1.635968,-1.319989 -0.866399,-2.089557 l 1.84493,-1.844923 -5.468528,-5.463427 -5.4634199,5.468521 1.844922,1.839829 c 0.7695689,0.769568 0.224246,2.089557 -0.866399,2.089557 h -5.708059 c -0.67783,0 -1.223153,-0.545323 -1.223153,-1.223155 v -5.708054 c 0,-1.090648 1.319992,-1.635971 2.089561,-0.866403 L 5.8867201,18.656026 11.355239,13.1926 5.8867201,7.7240794 4.0417981,9.574102 C 3.2722291,10.34367 1.9522371,9.7983457 1.9522371,8.7077 V 2.9996448 c 0,-0.6778319 0.545323,-1.2231547 1.223153,-1.2231547 h 5.708059 c 1.090645,0 1.6359679,1.3199882 0.866399,2.0895548 l -1.844922,1.8449259 5.4634199,5.4634242 5.468528,-5.4685211 -1.84493,-1.839829 C 16.222375,3.0964783 16.767698,1.7764901 17.858343,1.7764901 h 5.708059 c 0.67783,0 1.223153,0.5453228 1.223153,1.2231547 V 8.7077 c 0,1.0906457 -1.319984,1.63597 -2.089553,0.866402 l -1.84493,-1.8449258 -5.46852,5.4634238 5.46852,5.468523 1.84493,-1.844926 c 0.769569,-0.774665 2.089553,-0.229342 2.089553,0.861306 z"
         style="stroke-width:0.0509647;fill:#555555;fill-opacity:1" />
      <path
         style="fill:#333333;stroke-width:0.0267084"
         d="M 7.4502075,23.000722 C 7.6568085,22.80402 7.7211368,22.476151 7.5660414,22.211807 L 4.3398576,18.985623 c -0.405711,-0.238039 -0.9617529,0.04282 -0.9617522,0.555421 v 2.991225 c 7e-7,0.355223 0.2860678,0.64129 0.64129,0.64129 l 2.9912264,10e-7 c 0.178613,-10e-7 0.3290967,-0.06764 0.4395857,-0.172838 z"
         id="path1328" />
      <path
         style="fill:#333333;stroke-width:0.0267084"
         d="m 23.212713,19.24327 c -0.196702,-0.206601 -0.524572,-0.270929 -0.788915,-0.115834 l -3.226184,3.226184 c -0.238039,0.405711 0.04282,0.961753 0.55542,0.961752 h 2.991226 c 0.355223,0 0.64129,-0.286068 0.64129,-0.64129 l 1e-6,-2.991226 c -1e-6,-0.178613 -0.06764,-0.329097 -0.172838,-0.439586 z"
         id="path1332" />
      <path
         id="path1334"
         d="m 19.266272,3.4335178 c -0.206601,0.1967016 -0.27093,0.5245714 -0.115834,0.7889148 l 3.226184,3.2261839 c 0.405711,0.238039 0.961753,-0.042822 0.961752,-0.5554204 V 3.9019704 c -1e-6,-0.3552229 -0.286068,-0.64129 -0.64129,-0.64129 l -2.991227,-7e-7 c -0.178613,7e-7 -0.329096,0.067644 -0.439585,0.1728381 z"
         style="fill:#333333;stroke-width:0.0267084" />
      <path
         id="path1897"
         d="m 7.4502075,3.386706 c 0.206601,0.196702 0.2709293,0.524571 0.1158339,0.788915 L 4.3398576,7.401805 C 3.9341466,7.639844 3.3781047,7.358985 3.3781054,6.846384 V 3.855159 c 7e-7,-0.355223 0.2860678,-0.64129 0.64129,-0.64129 l 2.9912264,-10e-7 c 0.178613,10e-7 0.3290967,0.06764 0.4395857,0.172838 z"
         style="fill:#333333;stroke-width:0.0267084" />
  </g>
</svg>
