<?xml version="1.0" encoding="UTF-8" standalone="no"?>
<svg
   xmlns:dc="http://purl.org/dc/elements/1.1/"
   xmlns:cc="http://creativecommons.org/ns#"
   xmlns:rdf="http://www.w3.org/1999/02/22-rdf-syntax-ns#"
   xmlns:svg="http://www.w3.org/2000/svg"
   xmlns="http://www.w3.org/2000/svg"
   id="svg2263"
   version="1.1"
   viewBox="0 0 35.189582 26.458333"
   height="100"
   width="133">
  <defs
     id="defs2257" />
  <metadata
     id="metadata2260">
    <rdf:RDF>
      <cc:Work
         rdf:about="">
        <dc:format>image/svg+xml</dc:format>
        <dc:type
           rdf:resource="http://purl.org/dc/dcmitype/StillImage" />
        <dc:title></dc:title>
      </cc:Work>
    </rdf:RDF>
  </metadata>
  <g
     id="layer1">
    <path
       d="M 0.06360036,0.02911636 H 35.125983 c 0.01911,0 0.03448,0.01573352 0.03448,0.03527794 V 26.393938 c 0,0.01954 -0.01538,0.03528 -0.03448,0.03528 H 0.06360036 c -0.01910338,0 -0.034484,-0.01573 -0.034484,-0.03528 V 0.0643943 c 0,-0.01954442 0.01538064,-0.03527794 0.034484,-0.03527794 z"
       style="fill:#00ffff;fill-opacity:1;stroke:#ffb380;stroke-width:0.0582332"
       id="rect2265" />
    <path
       d="m -0.68396052,7.711481 c -0.27427,-0.014709 -0.63469478,0.040636 -1.11049118,0.187313 -3.9893457,1.2298551 1.54167768,3.127763 -1.9108201,5.474609 -3.2941397,2.2392 -3.1262847,-3.6135839 -5.5159607,-0.426924 -2.5045635,3.339852 3.0873257,1.623271 1.673636,5.551238 -1.348842,3.747795 -4.6529875,-1.08543 -4.7131965,2.897249 -0.06309,4.174139 3.4507925,-0.500899 4.6158915,3.507837 1.111662,3.824863 -4.4025345,1.857129 -2.110293,5.114581 2.402433,3.414045 2.498067,-2.434245 5.7969297,0.124066 3.14755028,2.440961 -2.4713428,4.089314 1.2978013,5.377303 3.9503366,1.349906 0.590497,-3.436607 4.7630677,-3.30593 3.9811915,0.1247 0.4057172,4.760341 4.2120803,3.586897 3.9893445,-1.229854 -1.5428897,-3.126548 1.9096058,-5.473391 3.2941377,-2.239201 3.1262847,3.613582 5.5159637,0.426923 2.504558,-3.339856 -3.086114,-1.624492 -1.672427,-5.552454 1.348847,-3.747797 4.652993,1.086644 4.7132,-2.896034 0.06311,-4.174138 -3.452008,0.499682 -4.61711,-3.509051 -1.11166,-3.824863 4.402537,-1.855914 2.110298,-5.113367 C 11.871779,10.268299 11.777359,16.115372 8.4784997,13.557067 5.3309497,11.116106 10.948626,9.4677501 7.1794796,8.1797611 3.2291426,6.8298565 6.5889826,11.616382 2.416414,11.485691 -1.0671292,11.376578 1.2359358,7.8144411 -0.68396052,7.711481 Z M 2.2595091,18.101199 a 3.7486883,3.7486883 0 0 1 3.7486667,3.748665 3.7486883,3.7486883 0 0 1 -3.7486667,3.748667 3.7486883,3.7486883 0 0 1 -3.7486667,-3.748667 3.7486883,3.7486883 0 0 1 3.7486667,-3.748665 z"
       style="fill:#d45500;fill-opacity:1;stroke:#ffb380;stroke-width:0.622749;stroke-miterlimit:4;stroke-dasharray:none;stroke-opacity:1"
       id="path2829" />
    <path
       id="path2838"
       style="fill:#d45500;fill-opacity:1;stroke:#ffb380;stroke-width:0.597013;stroke-miterlimit:4;stroke-dasharray:none;stroke-opacity:1"
       d="M 26.497464,4.3140754 C 26.23453,4.2999724 25.889,4.3530284 25.432867,4.4936466 c -3.824476,1.1790278 1.477965,2.9985022 -1.831852,5.2483578 -3.158,2.1466596 -2.997083,-3.4642434 -5.288003,-0.40928 -2.401054,3.2018226 2.959737,1.5561856 1.604473,5.3218176 -1.293101,3.59291 -4.460694,-1.040572 -4.518414,2.777516 -0.06049,4.001632 3.30818,-0.480198 4.425131,3.362866 1.065719,3.666793 -4.220592,1.78038 -2.023084,4.903211 2.30315,3.272952 2.394831,-2.333645 5.557361,0.118937 3.017469,2.340083 -2.369209,3.920315 1.244166,5.155075 3.787081,1.294117 0.566093,-3.294583 4.566223,-3.169306 3.81666,0.119546 0.38895,4.563608 4.038007,3.438661 3.824475,-1.179029 -1.479126,-2.997337 1.830687,-5.247192 3.158,-2.14666 2.997082,3.464244 5.288003,0.40928 2.401051,-3.201824 -2.958573,-1.557355 -1.603309,-5.322985 1.293102,-3.59291 4.460697,1.041738 4.518417,-2.776348 0.0605,-4.001632 -3.309347,0.479031 -4.426298,-3.364033 -1.065719,-3.666791 4.220592,-1.779213 2.023084,-4.902044 C 38.534309,6.7652266 38.443792,12.370654 35.281264,9.9180764 32.263795,7.5779942 37.649308,5.9977611 34.03593,4.7630021 30.24885,3.4688841 33.469838,8.0575947 29.46971,7.9323059 26.130131,7.8277069 28.338016,4.4127789 26.497464,4.3140754 Z m 2.821825,9.9603366 a 3.5937655,3.5937655 0 0 1 3.593745,3.593744 3.5937655,3.5937655 0 0 1 -3.593745,3.593744 3.5937655,3.5937655 0 0 1 -3.593745,-3.593744 3.5937655,3.5937655 0 0 1 3.593745,-3.593744 z" />
  </g>
</svg>
