<?xml version="1.0" encoding="UTF-8"?>
<!-- Created with Inkscape (http://www.inkscape.org/) -->
<svg  version="1.1" viewBox="0 0 79.374998 79.375002" xmlns="http://www.w3.org/2000/svg" xmlns:cc="http://creativecommons.org/ns#" xmlns:dc="http://purl.org/dc/elements/1.1/" xmlns:rdf="http://www.w3.org/1999/02/22-rdf-syntax-ns#">
 <metadata>
  <rdf:RDF>
   <cc:Work rdf:about="">
    <dc:format>image/svg+xml</dc:format>
    <dc:type rdf:resource="http://purl.org/dc/dcmitype/StillImage"/>
    <dc:title/>
   </cc:Work>
  </rdf:RDF>
 </metadata>
 <g transform="translate(0 -217.62)">
  <path d="m78.241 257.22a38.459 38.459 0 0 0 -38.459 -38.459 38.459 38.459 0 0 0 -38.459 38.459 38.459 38.459 0 0 0 38.459 38.459 38.459 38.459 0 0 0 38.459 -38.459z" fill="none" stroke="#0ff" stroke-linecap="round" stroke-linejoin="round" stroke-width=".79375" style="paint-order:markers fill stroke"/>
  <path class="st3" d="m52.45 242.22c0.08233 0.0275 0.16464 0.0275 0.24696 0.0549 0 0-0.08232-0.0274-0.24696-0.0549z" fill="#ccac8d" stroke-width=".26458"/>
  <path class="st3" d="m52.395 242.19h0.05488c0 0.0275-0.02744 0.0275-0.05488 0z" fill="#ccac8d" stroke-width=".26458"/>
  <g transform="matrix(.6257 0 0 .62555 97.048 93.032)" fill="none" stroke="#0ff" stroke-width="1.2687">
   <path d="m-114 216.31c0.68334-0.69163 1.6101-1.1274 2.5867-1.1702 1.3335 0.0567 2.7776 0.61417 3.436 1.8466 0.8673 1.5036 0.66811 3.5121-0.42328 4.8483-0.27112-0.28911-0.53532-0.59896-0.87976-0.8023-0.32921-0.16184-0.84932-0.0318-0.92263 0.3721-0.12726 0.57682 0.14662 1.1426 0.42881 1.6309-0.71515 0.18535-1.4538 0.23377-2.1897 0.16875-1.8093-0.30431-3.3129-1.9407-3.4651-3.768 0.0678-1.1758 0.69302-2.2367 1.4289-3.1262z"/>
   <path d="m-98.875 233.53c0.81197-0.12311 1.5672-0.50212 2.3944-0.5616 1.9075-0.0747 3.8538 0.0664 5.6631 0.71376 0.46063 0.20196 0.94754 0.4551 1.2021 0.90881-0.91849 0.22685-1.7899 0.60863-2.6752 0.93508-3.2963 1.3321-6.5484 2.8053-9.586 4.6602-0.87699 0.52841-1.6198 1.2394-2.4276 1.8619-0.44265 0.3555-0.90742 0.69025-1.292 1.1108-0.17014-1.5465 0.0498-3.1621 0.72345-4.5717 0.52979-0.94753 1.144-1.8992 2.0445-2.53 0.2227-0.21025 0.43019-0.43572 0.64598-0.65151 0.95445-0.83964 2.1136-1.4483 3.3074-1.8757z"/>
   <path d="m-44.765 244.01c1.9186-0.34444 3.8109 1.3376 3.9312 3.2313-0.0042 0.55607 0.06225 1.1356-0.16876 1.6599-0.28218 0.67503-0.68056 1.3514-1.3196 1.7443-0.57544 0.4302-1.3058 0.55193-2.0016 0.61694-0.71238-0.13694-1.5216-0.27665-2.0265-0.84241 0.52564-0.50351 1.0983-1.1343 1.0485-1.9144 0.01383-0.31124-0.29325-0.47861-0.53532-0.58789-0.63353-0.27665-1.3639-0.14247-1.9504 0.18398-0.15492-1.1246 0.18812-2.3543 1.0471-3.1262 0.53117-0.52287 1.2173-0.9171 1.9753-0.96551z"/>
   <path d="m-57.949 247.67c1.1495-0.19642 2.2824 0.26697 3.3005 0.75111 0.96967 0.43158 1.7346 1.191 2.5992 1.7789 0.82857 0.82027 1.3888 1.9048 1.6558 3.0363 0.0083 0.93093 0.28772 1.8605 0.06086 2.79-0.07193 1.0679-0.46616 2.0694-0.81198 3.0708-0.31123 0.70684-0.65705 1.4275-1.2256 1.9698-0.35273 0.33752-0.66397 0.77186-1.1785 0.86039-0.06086-0.9503-0.27527-1.8826-0.43296-2.8191-0.59895-3.0902-1.4815-6.1306-2.7402-9.0175-0.37071-0.82442-0.71376-1.671-1.227-2.4207z"/>
   <path d="m-115.22 273.87c1.0222-0.44265 2.2063-0.21164 3.1524 0.31123 1.487 0.80921 2.8896 1.772 4.1844 2.862 1.7457 1.4759 3.0874 3.3586 4.2259 5.3256 0.92125 1.6267 1.7692 3.3807 1.8909 5.2758 0.0913 1.3293-0.69025 2.5494-1.6585 3.3904-1.1024 0.85763-2.1468 1.819-3.4139 2.4346-0.99179 0.4952-2.0942 0.72897-3.1926 0.82027-2.5217-0.0318-4.9507-1.137-6.8333-2.779 0.53394-0.35688 1.1495-0.81889 1.1606-1.5257 0.16322-1.3888-1.2449-2.6005-2.5756-2.4553-0.43712 0.28495-0.7691 0.70131-1.1149 1.0859-0.81336-1.3169-1.4801-2.8495-1.3044-4.4306 0.42881-2.7333 1.321-5.45 2.956-7.7089 0.17291-0.19642 0.21856-0.44956 0.22271-0.70269 0.75387-0.64599 1.3542-1.5147 2.3004-1.9034z"/>
   <path d="m-128.82 291.95c0.58512-0.33752 1.2602-0.45233 1.913-0.58789 1.3611-4e-3 2.6393 0.54777 3.851 1.1177 0.74419 0.40114 1.2754 1.1481 1.5326 1.9435 0.50074 1.4607 0.42466 3.1234-0.34166 4.4804-0.35412 0.79814-0.98765 1.4109-1.6184 1.9947-1.2242 1.0333-2.9796 1.303-4.4887 0.81751-0.80091-0.34444-1.606-0.7608-2.18-1.4372-0.85762-1.0624-1.4012-2.4083-1.3736-3.786-0.0318-1.855 1.0568-3.6864 2.7057-4.5426z"/>
   <path d="m-110.21 221.4c0.0733-0.40391 0.59342-0.53394 0.92263-0.3721 0.34444 0.20334 0.60864 0.51319 0.87976 0.8023 0.5948 0.68748 1.2864 1.285 1.8619 1.9905 1.4607 1.6406 2.826 3.3641 4.201 5.0752 1.2283 1.4884 2.4511 2.9809 3.6449 4.497-0.04426 0.0332-0.13418 0.10236-0.17844 0.13694-1.1938 0.42743-2.3529 1.0361-3.3074 1.8757-0.14663-0.18674-0.2974-0.37072-0.42743-0.56852-1.92-3.0418-3.7846-6.1196-5.5026-9.2803-0.53118-0.85762-1.1592-1.6516-1.6654-2.5258-0.28219-0.48829-0.55607-1.054-0.42881-1.6309z"/>
   <path d="m-47.787 248.1c0.5865-0.32645 1.3169-0.46063 1.9504-0.18398 0.24207 0.10928 0.54916 0.27665 0.53532 0.58789 0.0498 0.78016-0.52287 1.4109-1.0485 1.9144-0.97797 0.85901-2.0472 1.6074-3.1372 2.3156-0.28357 0.19781-0.58374 0.37072-0.90604 0.49798-0.26697-1.1315-0.82719-2.216-1.6558-3.0363 1.3279-0.87146 2.9021-1.2754 4.2618-2.0956z"/>
   <path d="m-118.28 287.53c1.3307-0.14524 2.7388 1.0665 2.5756 2.4553-0.0111 0.70685-0.62662 1.1689-1.1606 1.5257-0.90603 0.54362-1.8342 1.054-2.7029 1.6571-0.64045 0.42882-1.2477 0.91572-1.949 1.2491-0.25728-0.79538-0.78846-1.5423-1.5326-1.9435 0.32091-0.61832 0.85762-1.0859 1.3307-1.5852 0.74004-0.79399 1.6392-1.4248 2.3239-2.2727 0.34581-0.38455 0.67779-0.80091 1.1149-1.0859z"/>
   <path d="m-85.871 233.89c2.0237-0.34858 4.0834-0.24899 6.1265-0.22547 5.3588 0.36933 10.684 2.216 14.874 5.6257 0.3721 0.26974 0.71238 0.57959 1.0264 0.91572 0.37348 0.41775 0.9088 0.6612 1.2283 1.1315 0.38455 0.57544 0.96967 0.97382 1.3667 1.5396 0.7276 0.89774 1.4137 1.8287 2.0389 2.8025 0.45786 0.64045 0.77878 1.3694 1.2615 1.9933 0.51319 0.74973 0.85624 1.5963 1.227 2.4207 1.2588 2.8869 2.1413 5.9273 2.7402 9.0175 0.15769 0.93647 0.3721 1.8688 0.43296 2.8191-0.07055 1.5119 0.24899 3.0169 0.0664 4.5274-0.12864 0.84517-0.01245 1.7097-0.17567 2.5535-0.22547 1.5091-0.89082 2.9104-1.5603 4.2688-0.29464 0.70269-1.0222 1.0527-1.6184 1.4593-0.6363 0.42742-1.4842 0.80505-2.2243 0.40253-1.1426-0.68195-1.6627-2.0223-1.9034-3.2728-0.3306-1.4082-0.02213-2.8634-0.2476-4.2826-0.0097-1.0651-0.12588-2.1219-0.19227-3.1829-0.28634-2.7043-0.5782-5.4653-1.6571-7.9925-0.3721-0.97244-1.025-1.7955-1.6765-2.5936-1.0582-0.97935-2.3142-1.7346-3.656-2.2561-1.8439-0.52702-3.7556-0.8756-5.6783-0.82857-2.2948-0.0581-4.562 0.41497-6.7711 0.98488-2.2796 0.58374-4.4375 1.5396-6.5567 2.5438-1.7083 0.71653-3.3226 1.6295-4.9631 2.4857-0.94338 0.51319-1.8812 1.0485-2.7236 1.7194-1.4372 1.0831-2.9629 2.0874-4.1332 3.4734-1.256 1.4939-2.382 3.2119-2.6808 5.1789-0.39008 2.8039 0.19642 5.6548 1.2436 8.2581 0.85901 2.0182 1.949 3.9437 3.3184 5.6631 0.56714 0.8023 1.2823 1.4787 1.8882 2.2506 0.67365 0.75941 1.4801 1.3736 2.2298 2.05 0.86592 0.65981 1.7899 1.2408 2.6379 1.9269 0.87699 0.61693 1.3708 1.6765 1.4607 2.7278-0.02628 1.0153-0.75803 1.8065-1.5202 2.3889-0.63215 0.46062-1.3929 0.70131-2.1413 0.89497-1.1384 0.11619-2.2824-0.0138-3.4208-0.0802-1.7899-0.20888-3.5868-0.54224-5.2536-1.2477-0.67088-0.26973-1.2878-0.65981-1.9698-0.90742 0.96829-0.84102 1.7498-2.0611 1.6585-3.3904-0.12173-1.8951-0.96967-3.649-1.8909-5.2758-1.1384-1.967-2.4802-3.8496-4.2259-5.3256-1.2947-1.09-2.6974-2.0528-4.1844-2.862-0.94615-0.52287-2.1302-0.75388-3.1524-0.31123-0.94615 0.38869-1.5465 1.2574-2.3004 1.9034-0.18674-0.72345-0.1494-1.4704-0.19919-2.2077-0.13141-0.78569-0.0871-1.5838-0.12865-2.3751-0.15216-1.292-0.0954-2.595-0.11619-3.8925-0.0304-2.3336 0.01-4.674 0.36795-6.9841 0.30155-1.8716 1.0125-3.6546 1.8508-5.3463 0.91572-1.8992 2.1192-3.6421 3.4623-5.2619 1.0513-1.1633 2.0569-2.3792 3.2534-3.4042 0.5948-0.41221 1.0181-1.0195 1.617-1.4275 0.60034-0.57959 1.3348-1.0222 1.819-1.718 0.38455-0.42051 0.84932-0.75526 1.292-1.1108 0.80782-0.62247 1.5506-1.3335 2.4276-1.8619 3.0376-1.855 6.2897-3.3281 9.586-4.6602 0.88529-0.32645 1.7567-0.70823 2.6752-0.93508 1.2712-0.10513 2.4719-0.60587 3.7445-0.70685z"/>
  </g>
 </g>
 <style type="text/css">.st0{fill:#C1272D;}
	.st1{fill:#EFCCA3;}
	.st2{fill:#ED1C24;}
	.st3{fill:#CCAC8D;}
	.st4{fill:#FFFFFF;}
	.st5{fill:#FF931E;}
	.st6{fill:#FFB81E;}
	.st7{fill:#56332B;}
	.st8{fill:#442823;}
	.st9{fill:#7F4A41;}
	.st10{fill:#331712;}
	.st11{fill:#FFCC66;}
	.st12{fill:#CCCCCC;}
	.st13{fill:#B3B3B3;}
	.st14{fill:#989898;}
	.st15{fill:#323232;}
	.st16{fill:#1E1E1E;}
	.st17{fill:#4C4C4C;}
	.st18{fill:#E6E6E6;}
	.st19{fill:#606060;}</style>
</svg>
