<?xml version="1.0" encoding="UTF-8"?>
<!-- Created with Inkscape (http://www.inkscape.org/) -->
<svg version="1.1" viewBox="0 0 79.374998 79.375002" xmlns="http://www.w3.org/2000/svg" xmlns:cc="http://creativecommons.org/ns#" xmlns:dc="http://purl.org/dc/elements/1.1/" xmlns:rdf="http://www.w3.org/1999/02/22-rdf-syntax-ns#">
 
 <rect x=".16817" y="-1.0742e-6" width="79.375" height="79.375" ry=".73065" fill="#333" style="paint-order:markers fill stroke"/>
 <path class="st3" d="m52.45 24.6c0.08233 0.0275 0.16464 0.0275 0.24696 0.0549 0 0-0.08232-0.0274-0.24696-0.0549z" fill="#ccac8d" stroke-width=".26458"/>
 <path class="st3" d="m52.395 24.57h0.05488c0 0.0275-0.02744 0.0275-0.05488 0z" fill="#ccac8d" stroke-width=".26458"/>
 <g fill="none" stroke="#46c2ff">
  <path d="m19.213 7.1744c0.5149-0.52108 1.2132-0.84939 1.9491-0.88164 1.0048 0.042718 2.0929 0.46272 2.5891 1.3912 0.65352 1.1328 0.50343 2.646-0.31894 3.6527-0.20429-0.21782-0.40337-0.45126-0.66291-0.60446-0.24806-0.12193-0.63997-0.02396-0.69521 0.28034-0.09589 0.43458 0.11048 0.86084 0.32311 1.2287-0.53887 0.13964-1.0954 0.17612-1.65 0.12714-1.3633-0.22927-2.4963-1.4621-2.611-2.8388 0.05109-0.88586 0.5222-1.6851 1.0767-2.3553z" stroke-width=".79375"/>
  <g stroke-width=".79373">
   <path d="m30.61 20.148c0.61183-0.09275 1.1809-0.3783 1.8042-0.42311 1.4373-0.05628 2.9039 0.05003 4.2672 0.53775 0.34709 0.15216 0.71398 0.34288 0.90579 0.6847-0.69209 0.17091-1.3487 0.45855-2.0158 0.7045-2.4838 1.0036-4.9343 2.1135-7.2231 3.511-0.66082 0.39811-1.2205 0.93377-1.8292 1.4028-0.33354 0.26784-0.68375 0.52004-0.97353 0.83688-0.1282-1.1651 0.03753-2.3823 0.54513-3.4444 0.3992-0.71388 0.86201-1.4309 1.5405-1.9061 0.16781-0.1584 0.32415-0.32827 0.48675-0.49085 0.71919-0.63259 1.5926-1.0912 2.4922-1.4132z"/>
   <path d="m71.382 28.044c1.4457-0.2595 2.8715 1.0078 2.9622 2.4345-0.0032 0.41895 0.0469 0.85557-0.12716 1.2506-0.21262 0.50857-0.51281 1.0182-0.99433 1.3142-0.4336 0.32412-0.98393 0.41583-1.5082 0.46481-0.53678-0.10317-1.1465-0.20843-1.527-0.63468 0.39607-0.37935 0.82758-0.85459 0.79005-1.4423 0.01042-0.23449-0.22097-0.36059-0.40337-0.44292-0.47737-0.20843-1.0277-0.10734-1.4696 0.13861-0.11673-0.84728 0.14175-1.7737 0.789-2.3553 0.40024-0.39393 0.91724-0.69095 1.4884-0.72742z"/>
   <path d="m61.448 30.801c0.86616-0.14798 1.7198 0.20114 2.487 0.56589 0.73065 0.32516 1.307 0.89731 1.9585 1.3402 0.62433 0.618 1.0465 1.4351 1.2477 2.2876 0.0063 0.70137 0.2168 1.4017 0.04586 2.102-0.0542 0.80456-0.35126 1.5591-0.61183 2.3136-0.23451 0.53254-0.49509 1.0755-0.9235 1.4841-0.26578 0.25429-0.50031 0.58152-0.88801 0.64822-0.04586-0.71596-0.20742-1.4184-0.32624-2.1239-0.45131-2.3282-1.1163-4.6188-2.0648-6.7938-0.27933-0.62112-0.53782-1.2589-0.92455-1.8238z"/>
   <path d="m18.294 50.541c0.77024-0.3335 1.6625-0.15945 2.3754 0.23448 1.1205 0.60966 2.1773 1.335 3.153 2.1563 1.3154 1.112 2.3264 2.5304 3.1842 4.0123 0.69417 1.2256 1.3331 2.547 1.4248 3.9748 0.06879 1.0015-0.52011 1.9207-1.2497 2.5544-0.83067 0.64614-1.6176 1.3704-2.5724 1.8342-0.74732 0.37309-1.578 0.54921-2.4056 0.618-1.9001-0.02396-3.7304-0.85662-5.1489-2.0937 0.40233-0.26888 0.86616-0.61696 0.87452-1.1495 0.12299-1.0463-0.93804-1.9592-1.9407-1.8498-0.32937 0.21468-0.57952 0.52837-0.84009 0.81812-0.61287-0.99216-1.1153-2.1468-0.98288-3.338 0.32311-2.0593 0.99538-4.1061 2.2274-5.8079 0.13029-0.14798 0.16469-0.3387 0.16781-0.52941 0.56805-0.48669 1.0204-1.1412 1.7334-1.434z"/>
   <path d="m8.0463 64.162c0.44089-0.25429 0.94957-0.34079 1.4415-0.44292 1.0256-3e-3 1.9887 0.41269 2.9018 0.84208 0.56075 0.30222 0.96102 0.86499 1.1548 1.4642 0.37731 1.1005 0.31998 2.3532-0.25744 3.3756-0.26683 0.60132-0.7442 1.063-1.2195 1.5028-0.92244 0.7785-2.2452 0.98169-3.3823 0.61592-0.60349-0.2595-1.2101-0.57319-1.6426-1.0828-0.64622-0.80042-1.0558-1.8144-1.035-2.8524-0.023962-1.3976 0.79631-2.7774 2.0388-3.4224z"/>
   <path d="m22.069 11.009c0.05523-0.30431 0.44715-0.40228 0.69521-0.28034 0.25954 0.1532 0.45862 0.38664 0.66291 0.60446 0.44819 0.51795 0.96931 0.96813 1.403 1.4997 1.1006 1.236 2.1294 2.5345 3.1655 3.8237 0.92553 1.1214 1.8469 2.2458 2.7465 3.3881-0.03335 0.02501-0.1011 0.07712-0.13446 0.10317-0.89954 0.32203-1.7729 0.7806-2.4922 1.4132-0.11049-0.14069-0.22409-0.2793-0.32207-0.42833-1.4467-2.2917-2.8517-4.6105-4.1463-6.9918-0.40025-0.64614-0.87347-1.2443-1.2549-1.903-0.21263-0.36788-0.419-0.79409-0.32311-1.2287z"/>
   <path d="m69.105 31.125c0.44193-0.24595 0.99229-0.34704 1.4696-0.13861 0.1824 0.08233 0.4138 0.20843 0.40337 0.44292 0.03753 0.58778-0.39399 1.063-0.79005 1.4423-0.73691 0.64718-1.5426 1.211-2.3639 1.7446-0.21367 0.14903-0.43985 0.2793-0.68271 0.37518-0.20116-0.85248-0.62329-1.6695-1.2477-2.2876 1.0006-0.65656 2.1868-0.9609 3.2113-1.5788z"/>
   <path d="m15.988 60.832c1.0027-0.10942 2.0637 0.80351 1.9407 1.8498-0.0084 0.53254-0.47216 0.88066-0.87452 1.1495-0.6827 0.40957-1.3821 0.79409-2.0367 1.2485-0.48258 0.32308-0.94015 0.68991-1.4686 0.94108-0.19386-0.59924-0.59411-1.162-1.1548-1.4642 0.24181-0.46585 0.64622-0.81812 1.0027-1.1943 0.55763-0.5982 1.2352-1.0735 1.7511-1.7123 0.26057-0.28972 0.51072-0.60341 0.84009-0.81812z"/>
  </g>
  <path d="m40.409 20.419c1.5249-0.26262 3.0769-0.18759 4.6164-0.16987 4.0379 0.27826 8.0505 1.6695 11.208 4.2384 0.28038 0.20322 0.53678 0.43667 0.7734 0.68991 0.28142 0.31474 0.68479 0.49815 0.92553 0.85248 0.28976 0.43354 0.73065 0.73368 1.0298 1.1599 0.54825 0.67636 1.0652 1.3778 1.5363 2.1114 0.345 0.48252 0.58682 1.0317 0.95055 1.5018 0.38669 0.56485 0.64518 1.2027 0.92455 1.8238 0.94852 2.175 1.6135 4.4657 2.0648 6.7938 0.11882 0.70554 0.28038 1.408 0.32624 2.1239-0.05316 1.1391 0.18762 2.273 0.05003 3.411-0.09693 0.63676-0.0094 1.2881-0.13237 1.9238-0.16989 1.137-0.67124 2.1927-1.1757 3.2161-0.22201 0.52941-0.77024 0.79311-1.2195 1.0994-0.47946 0.32202-1.1184 0.60653-1.676 0.30327-0.86096-0.51379-1.2529-1.5236-1.4342-2.4658-0.24911-1.0609-0.01668-2.1573-0.18657-3.2265-0.0073-0.80245-0.09485-1.5987-0.14488-2.398-0.21576-2.0374-0.43568-4.1176-1.2486-6.0216-0.28038-0.73264-0.77234-1.3527-1.2633-1.954-0.79736-0.73785-1.7438-1.3069-2.7548-1.6998-1.3894-0.39706-2.8299-0.65968-4.2786-0.62425-1.7291-0.04377-3.4375 0.31264-5.1021 0.74202-1.7177 0.43979-3.3437 1.1599-4.9405 1.9165-1.2872 0.53984-2.5036 1.2277-3.7397 1.8727-0.71084 0.38664-1.4175 0.78995-2.0523 1.2954-1.0829 0.81602-2.2326 1.5727-3.1144 2.6169-0.94641 1.1255-1.7949 2.4199-2.02 3.9018-0.29393 2.1125 0.148 4.2604 0.93706 6.2217 0.64727 1.5205 1.4686 2.9712 2.5004 4.2666 0.42734 0.60446 0.96622 1.1141 1.4228 1.6956 0.5076 0.57214 1.1153 1.0349 1.6802 1.5445 0.65248 0.49711 1.3487 0.93483 1.9877 1.4517 0.66082 0.4648 1.0329 1.2631 1.1006 2.0551-0.0198 0.76493-0.57118 1.361-1.1455 1.7998-0.47633 0.34703-1.0496 0.52837-1.6135 0.67428-0.85779 0.08754-1.7198-0.0104-2.5776-0.06042-1.3487-0.15737-2.7027-0.40853-3.9586-0.94003-0.50551-0.20322-0.97037-0.4971-1.4843-0.68366 0.72961-0.63363 1.3185-1.5528 1.2497-2.5544-0.09172-1.4278-0.73065-2.7492-1.4248-3.9748-0.85779-1.482-1.8688-2.9003-3.1842-4.0123-0.97557-0.82121-2.0325-1.5466-3.153-2.1562-0.71293-0.39393-1.6051-0.56798-2.3754-0.23448-0.71293 0.29284-1.1653 0.94733-1.7334 1.434-0.14071-0.54505-0.11257-1.1078-0.15009-1.6633-0.09902-0.59194-0.06563-1.1932-0.09694-1.7894-0.11465-0.9734-0.07189-1.9551-0.08755-2.9326-0.02291-1.7582 0.0075-3.5214 0.27725-5.2619 0.22722-1.4101 0.76293-2.7534 1.3946-4.0279 0.69-1.4309 1.5968-2.744 2.6089-3.9644 0.79216-0.87644 1.5499-1.7925 2.4515-2.5647 0.44819-0.31056 0.76715-0.7681 1.2184-1.0755 0.45236-0.43667 1.0058-0.77013 1.3706-1.2944 0.28976-0.31682 0.63997-0.56902 0.97353-0.83688 0.6087-0.46897 1.1684-1.0047 1.8292-1.4028 2.2889-1.3976 4.7393-2.5074 7.2231-3.511 0.66707-0.24595 1.3237-0.53359 2.0158-0.7045 0.95786-0.07921 1.8626-0.45647 2.8215-0.53255z" stroke-width="1.0583"/>
 </g>
 <style type="text/css">.st0{fill:#C1272D;}
	.st1{fill:#EFCCA3;}
	.st2{fill:#ED1C24;}
	.st3{fill:#CCAC8D;}
	.st4{fill:#FFFFFF;}
	.st5{fill:#FF931E;}
	.st6{fill:#FFB81E;}
	.st7{fill:#56332B;}
	.st8{fill:#442823;}
	.st9{fill:#7F4A41;}
	.st10{fill:#331712;}
	.st11{fill:#FFCC66;}
	.st12{fill:#CCCCCC;}
	.st13{fill:#B3B3B3;}
	.st14{fill:#989898;}
	.st15{fill:#323232;}
	.st16{fill:#1E1E1E;}
	.st17{fill:#4C4C4C;}
	.st18{fill:#E6E6E6;}
	.st19{fill:#606060;}</style>
</svg>
