
<svg
   
   xmlns:svg="http://www.w3.org/2000/svg"
   xmlns="http://www.w3.org/2000/svg"
   id="svg11933"
   version="1.1"
   viewBox="0 0 26.458333 26.458334"
   >
  <g
     transform="translate(0,-270.54165)"
     id="layer1">
    <path
       style="fill:none;stroke:#fdf5e6;stroke-width:0.26458332;stroke-miterlimit:4;stroke-dasharray:none;stroke-opacity:1"
       d="m 21.583371,286.61457 v 6.79799 c 0,0.63094 -0.442876,1.13855 -0.993368,1.13855 h -4.801282 c -0.273177,0 -0.496684,-0.2562 -0.496684,-0.56928 v -5.31316 c 0,-0.31309 -0.223509,-0.56926 -0.496686,-0.56926 h -2.980104 c -0.273177,0 -0.496685,0.25617 -0.496685,0.56926 v 5.31316 c 0,0.31308 -0.223507,0.56928 -0.496683,0.56928 H 6.0205965 c -0.5504912,0 -0.9933681,-0.50761 -0.9933681,-1.13855 v -6.79799 c 0,-0.17077 0.06623,-0.33206 0.1821176,-0.44119 l 7.781387,-7.34354 c 0.182117,-0.17077 0.447015,-0.17077 0.633272,0 l 7.781387,7.34354 c 0.111752,0.10909 0.177979,0.27042 0.177979,0.44119 z m 3.460233,-2.88904 -3.460233,-3.26853 v -6.57029 c 0,-0.3131 -0.223508,-0.56928 -0.496685,-0.56928 h -2.31786 c -0.273176,0 -0.496685,0.25618 -0.496685,0.56928 v 3.44406 l -3.704436,-3.49623 c -0.732609,-0.69262 -1.792203,-0.69262 -2.524811,0 l -10.4758992,9.89099 c -0.2110915,0.19924 -0.2400639,0.5598 -0.066229,0.80172 l 1.0554536,1.47061 c 0.1738391,0.24194 0.4884063,0.27517 0.6994979,0.0758 l 9.7350102,-9.18888 c 0.182118,-0.17077 0.447015,-0.17077 0.633272,0 l 9.735012,9.1889 c 0.21109,0.19926 0.525658,0.16606 0.699498,-0.0758 l 1.055454,-1.47061 c 0.17384,-0.24668 0.140726,-0.60248 -0.07037,-0.80172 z"
       id="path11999" />
  </g>
</svg>
