
<svg
   xmlns:svg="http://www.w3.org/2000/svg"
   xmlns="http://www.w3.org/2000/svg"
   id="links-svg"
   version="1.1"
   viewBox="0 0 26.458333 26.458334"
  >
    <g
       transform="matrix(1.2689872,0,0,1.2689872,-2.7663462,-3.8927601)"
       >
      <path
         d="m 15.038598,10.947258 c 2.090683,2.092854 2.061989,5.448228 0.01261,7.508992 -0.0038,0.0042 -0.0084,0.0087 -0.01261,0.01295 l -2.35148,2.35148 c -2.073992,2.073993 -5.4482626,2.073713 -7.5219382,0 -2.073992,-2.073642 -2.073992,-5.448295 0,-7.521938 l 1.298423,-1.298422 c 0.344324,-0.344325 0.9373026,-0.115475 0.9550786,0.371128 0.02267,0.620133 0.13388,1.24317 0.339075,1.844827 0.06949,0.203725 0.01984,0.429075 -0.132376,0.581291 l -0.457944,0.457945 c -0.9806936,0.980693 -1.0114506,2.57753 -0.04042,3.567812 0.9806226,1.000043 2.5924369,1.005992 3.5805836,0.01784 l 2.35148,-2.35113 c 0.986467,-0.986467 0.982338,-2.580925 0,-3.563263 -0.129506,-0.129262 -0.259958,-0.229689 -0.361855,-0.299849 a 0.56117102,0.56117102 0 0 1 -0.243091,-0.441113 c -0.01385,-0.369763 0.117153,-0.750793 0.409339,-1.042979 L 13.6002,10.406065 c 0.193193,-0.193192 0.496261,-0.216917 0.720281,-0.06057 a 5.3356913,5.3356913 0 0 1 0.718111,0.601762 z m 4.931635,-4.9318809 c -2.073677,-2.073711 -5.447945,-2.073992 -7.521938,0 l -2.35148,2.351481 c -0.0042,0.0042 -0.0087,0.0087 -0.0126,0.01295 -2.0493586,2.0607649 -2.0780866,5.4161399 0.0126,7.5089919 a 5.3347115,5.3347115 0 0 0 0.718076,0.601727 c 0.224021,0.156345 0.527124,0.132586 0.720281,-0.06057 l 0.736727,-0.736762 c 0.292186,-0.292185 0.423197,-0.673216 0.40934,-1.042979 a 0.56117102,0.56117102 0 0 0 -0.243091,-0.441113 c -0.101898,-0.07016 -0.232349,-0.170588 -0.361855,-0.299849 -0.982338,-0.982338 -0.986468,-2.576796 0,-3.563264 l 2.351481,-2.3511309 c 0.988146,-0.988146 2.599925,-0.982198 3.580583,0.01785 0.971035,0.99028 0.940313,2.5871179 -0.04042,3.5678119 l -0.457943,0.457944 c -0.152217,0.152216 -0.201871,0.377567 -0.132376,0.581292 0.205194,0.601657 0.316399,1.224694 0.339074,1.844827 0.01782,0.486602 0.610755,0.715452 0.95508,0.371128 l 1.298423,-1.298423 c 2.074027,-2.073607 2.074027,-5.4482619 3.4e-5,-7.5219049 z"
         style="fill:#555555;fill-opacity:1;stroke-width:0.0349922" />
      <path
         style="fill:#1a1a1a;fill-opacity:1;stroke-width:0.0349922"
         d="m 6.912461,11.861808 c -0.1054502,-0.01047 -0.2144757,0.0091 -0.3141927,0.06253 0.2324108,0.05062 0.4321813,0.23943 0.4423503,0.517798 0.02267,0.620133 0.1338022,1.243191 0.3389974,1.844848 0.06949,0.203725 0.019923,0.429144 -0.1322917,0.58136 l -0.4578532,0.457853 c -0.980694,0.980693 -1.0113386,2.577459 -0.040308,3.567741 0.6227532,0.635086 1.499458,0.868001 2.3099366,0.701249 -0.6965011,0.03649 -1.4054347,-0.211095 -1.932182,-0.748274 -0.9710309,-0.990282 -0.9403863,-2.587048 0.040308,-3.567741 l 0.45837,-0.457853 C 7.7778118,14.669102 7.8273772,14.443683 7.7578873,14.239958 7.5526924,13.638301 7.44156,13.015242 7.4188899,12.395109 7.4077801,12.090982 7.1718112,11.887558 6.912461,11.861808 Z"
         id="path2557" />
      <path
         style="fill:#1a1a1a;fill-opacity:1;stroke-width:0.0349922"
         d="m 13.9251,10.244484 c -0.07196,0.0059 -0.141906,0.02763 -0.207222,0.06098 0.07035,0.01587 0.138818,0.04392 0.201021,0.08733 a 5.3356911,5.3356911 0 0 1 0.718303,0.601513 c 2.090683,2.092854 2.061781,5.448339 0.0124,7.509103 -0.0038,0.0042 -0.0082,0.0087 -0.0124,0.01292 l -2.351795,2.351794 c -0.830256,0.830256 -1.869537,1.32176 -2.9496907,1.487247 1.2142077,-0.09834 2.4010227,-0.60785 3.3279627,-1.53479 l 2.351277,-2.351277 c 0.0042,-0.0042 0.0086,-0.0087 0.0124,-0.01292 2.049379,-2.060764 2.078281,-5.416249 -0.0124,-7.509102 a 5.3356911,5.3356911 0 0 0 -0.718302,-0.602031 c -0.11201,-0.07817 -0.243635,-0.111305 -0.371554,-0.100768 z"
         id="path2555" />
      <path
         style="fill:#1a1a1a;fill-opacity:1;stroke-width:0.0349922"
         d="m 15.697971,7.3118459 c -0.600035,0.031505 -1.190681,0.2729082 -1.647961,0.730188 l -2.351795,2.3512781 c -0.986468,0.986467 -0.982338,2.580752 0,3.56309 0.129506,0.129261 0.259837,0.229563 0.361735,0.299723 a 0.561171,0.561171 0 0 1 0.243396,0.441317 c 0.01386,0.369762 -0.117091,0.750645 -0.409277,1.04283 l -0.736906,0.736906 c -0.04214,0.04214 -0.08992,0.07487 -0.14056,0.100769 0.182867,0.04107 0.378923,-0.0084 0.518315,-0.147795 l 0.736906,-0.736906 c 0.292186,-0.292185 0.423134,-0.673067 0.409277,-1.04283 a 0.561171,0.561171 0 0 0 -0.242879,-0.441317 c -0.101898,-0.07016 -0.232229,-0.170462 -0.361735,-0.299723 -0.982338,-0.982338 -0.986468,-2.57714 0,-3.563607 L 14.427764,7.9950085 C 14.78838,7.6343933 15.232228,7.4076698 15.697971,7.3118459 Z"
         id="path2553" />
      <path
         style="fill:#1a1a1a;fill-opacity:1;stroke-width:0.0349922"
         d="m 16.209568,4.5070706 c -0.273369,-6.9e-6 -0.546261,0.026448 -0.817005,0.068213 1.504318,-0.1234403 3.051424,0.3864518 4.199744,1.53479 2.073993,2.073643 2.074027,5.4478974 0,7.5215044 l -1.298629,1.298629 c -0.04151,0.04151 -0.08655,0.07433 -0.133842,0.09974 0.173618,0.03752 0.365017,3.43e-4 0.512114,-0.146762 l 1.298112,-1.298628 c 2.074027,-2.073607 2.073993,-5.4483786 0,-7.5220216 C 18.933223,5.0256759 17.571593,4.5071058 16.209568,4.5070706 Z"
         id="path1970" />
    </g>
  </g>
</svg>
