<?xml version="1.0" encoding="UTF-8" standalone="no"?>
<!-- Created with Inkscape (http://www.inkscape.org/) -->

<svg
   xmlns:dc="http://purl.org/dc/elements/1.1/"
   xmlns:cc="http://creativecommons.org/ns#"
   xmlns:rdf="http://www.w3.org/1999/02/22-rdf-syntax-ns#"
   xmlns:svg="http://www.w3.org/2000/svg"
   xmlns="http://www.w3.org/2000/svg"
   xmlns:sodipodi="http://sodipodi.sourceforge.net/DTD/sodipodi-0.dtd"
   xmlns:inkscape="http://www.inkscape.org/namespaces/inkscape"
   
   viewBox="0 0 79.374998 79.375002"
   version="1.1"
  >
  
  <g
     inkscape:label="Layer 1"
     inkscape:groupmode="layer"
     id="layer1"
     transform="translate(0,-217.62498)">
    <path
       style="opacity:1;fill:none;fill-opacity:1;stroke:#00ffff;stroke-width:0.79375;stroke-linecap:round;stroke-linejoin:round;stroke-miterlimit:4;stroke-dasharray:none;stroke-dashoffset:0;stroke-opacity:1;paint-order:markers fill stroke"
       d="M 78.241066,257.21796 A 38.459072,38.459072 0 0 0 39.781993,218.75889 38.459072,38.459072 0 0 0 1.3229202,257.21796 38.459072,38.459072 0 0 0 39.781993,295.67704 38.459072,38.459072 0 0 0 78.241066,257.21796 Z"
       id="path10"
       inkscape:connector-curvature="0" />
    <path
       id="path1589"
       d="m 62.452796,247.26619 c -0.830174,-1.69451 -3.02303,-4.94396 -4.065762,-6.78266 -2.606828,-3.55787 -4.8398,-6.44221 -18.011143,-6.44221 v 0.0275 h -0.246962 0.246962 v -0.0549 c -12.896941,0 -16.205655,2.08012 -18.812484,6.60826 -1.070172,1.8387 -3.566264,4.53371 -3.703466,6.92127 -0.10976,1.92104 -1.237599,3.97928 -0.908315,6.17475 0.439044,2.8541 -0.339035,5.68075 0.100009,8.34275 0.356723,2.16802 3.292835,3.92439 3.567238,5.98264 0.768328,5.59843 6.311269,8.15065 19.757016,8.15065 v 0.10978 h -0.274403 0.05488 0.219522 v -0.10978 c 13.445747,0 18.769165,-2.57966 19.510053,-8.17809 0.274403,-2.05824 3.018433,-3.84207 3.375157,-5.98264 0.439045,-2.63456 -0.505069,-5.62726 -0.06602,-8.48136 0.188177,-2.66346 -0.49982,-3.82573 -0.742283,-6.28597 z"
       class="st1"
       inkscape:connector-curvature="0"
       style="fill:none;stroke:#00ffff;stroke-width:0.79374999;stroke-miterlimit:4;stroke-dasharray:none;stroke-opacity:1"
       sodipodi:nodetypes="cccccccccccccccccccscc" />
    <path
       id="path1591"
       d="m 55.072459,279.65092 c -9.412022,3.45786 -19.729575,3.45786 -29.141597,0 -0.850649,-0.32931 -1.564097,-1.34471 -1.564097,-2.2229 0,-0.74097 0,-1.50938 0,-2.25034 0,-0.87819 0.686007,-1.31728 1.564097,-0.98796 9.412022,3.45785 19.729575,3.45785 29.141597,0 0.850649,-0.32932 1.564098,0.10977 1.564098,0.98796 0,0.74096 0,1.50937 0,2.25034 0,0.87819 -0.713449,1.89359 -1.564098,2.2229 z"
       class="st2"
       inkscape:connector-curvature="0"
       style="fill:none;stroke:#00ffff;stroke-width:0.5291667;stroke-miterlimit:4;stroke-dasharray:none;stroke-opacity:1" />
    <path
       style="fill:none;fill-opacity:1;stroke:#00ffff;stroke-width:0.52916676;stroke-miterlimit:4;stroke-dasharray:none;stroke-opacity:1"
       d="m 35.915496,253.07512 c -3.619049,1.05357 -6.388407,3.31386 -8.326954,5.69234 -2.744027,3.32064 -2.551624,4.69313 -2.551624,7.87655 0,11.55362 5.142424,7.88779 6.958152,9.25996 5.970065,0.25332 6.745748,0.0473 9.143193,0.21386 2.374675,-0.0737 5.346355,-0.005 7.702042,-0.58799 0.878348,-1.02437 6.819878,2.66779 6.819878,-8.88583 0,-3.18342 0.191868,-4.55591 -2.552162,-7.87655 -1.899484,-2.35482 -4.626476,-4.59447 -8.201541,-5.66125 0.152878,0.37032 0.168654,0.73564 0.02467,1.0511 -0.548809,1.28983 -2.551948,1.70116 -4.52765,1.72861 -2.003142,-0.0275 -3.978843,-0.43878 -4.527649,-1.72861 -0.148024,-0.32427 -0.125378,-0.70126 0.03966,-1.08219 z"
       id="path1621"
       inkscape:connector-curvature="0"
       sodipodi:nodetypes="ccscccscccccc" />
    <path
       id="path1635"
       d="m 34.915271,266.25974 c 0,0 -1.372014,4.11649 -0.439044,5.92775 l -1.262254,-0.57632 c 0,0 0.96041,-4.14393 1.701298,-5.35143 z"
       class="st8"
       inkscape:connector-curvature="0"
       style="fill:#00ffff;stroke-width:0.26458332;fill-opacity:1" />
    <path
       id="path1637"
       d="m 45.809071,266.25974 c 0,0 1.372014,4.11649 0.439044,5.92775 l 1.262254,-0.57632 c 0,0 -0.987851,-4.14393 -1.701298,-5.35143 z"
       class="st8"
       inkscape:connector-curvature="0"
       style="fill:#00ffff;stroke-width:0.26458332;fill-opacity:1" />
    <path
       id="path1641"
       d="m 40.34845,261.75904 c 1.454337,0 6.064307,3.15598 6.174068,7.10781 0,-0.0549 0,-0.13722 0,-0.19211 0,-4.03415 -3.731881,-7.29991 -6.174068,-7.29991 -2.442186,0 -6.174067,3.26576 -6.174067,7.29991 0,0.0549 0,0.13722 0,0.19211 0.109762,-3.92439 4.719732,-7.10781 6.174067,-7.10781 z"
       inkscape:connector-curvature="0"
       style="stroke-width:0.26458332;fill:#00ffff;fill-opacity:1" />
    <path
       id="path1669"
       d="m 25.146525,259.81057 c 0,0 -2.579389,1.28983 -4.417889,0.52142 v 0 c 0,0 0.08232,0 0.08232,0 0,0 0.109761,0 0.109761,0 v 0 c -1.920821,-0.96051 -2.579388,-3.73229 -2.579388,-3.73229 0,0 1.481776,4.85746 6.805196,3.21087 z"
       class="st3"
       inkscape:connector-curvature="0"
       style="fill:none;stroke:#00ffff;stroke-width:0.26458332;stroke-opacity:1" />
    <path
       id="path1671"
       d="m 55.248533,259.81057 c 0,0 2.579388,1.28983 4.417889,0.52142 v 0 c 0,0 0.109761,0 0.109761,0 0,0 0.08232,0 0.08232,0 v 0 c 1.92082,-0.96051 2.387306,-3.73229 2.387306,-3.73229 0,0 -1.701299,4.85746 -6.997276,3.21087 z"
       class="st3"
       inkscape:connector-curvature="0"
       style="fill:none;stroke:#00ffff;stroke-width:0.26458332;stroke-opacity:1" />
    <path
       id="path1673"
       d="m 40.26613,244.63443 c 0,0 0,0 0,0 0,0 0,0 0,0 z"
       class="st3"
       inkscape:connector-curvature="0"
       style="fill:#ccac8d;stroke-width:0.26458332" />
    <path
       id="path1679"
       d="m 52.449623,242.21942 c 0.08233,0.0275 0.164642,0.0275 0.246962,0.0549 0,0 -0.08232,-0.0274 -0.246962,-0.0549 z"
       class="st3"
       inkscape:connector-curvature="0"
       style="fill:#ccac8d;stroke-width:0.26458332" />
    <path
       id="path1681"
       d="m 52.394742,242.19198 c 0.02744,0 0.02744,0 0.05488,0 0,0.0275 -0.02744,0.0275 -0.05488,0 z"
       class="st3"
       inkscape:connector-curvature="0"
       style="fill:#ccac8d;stroke-width:0.26458332" />
    <path
       id="path1687"
       d="m 53.794197,235.49582 c 0,0 6.36615,5.32399 8.20465,11.47129 1.8385,6.1473 1.070172,13.61186 2.524508,14.57238 2.030582,1.34472 4.335567,-6.50406 5.103896,-7.3548 1.179932,-1.28983 5.241096,-4.66536 5.488059,-5.26911 0.274403,-0.60375 -8.122328,-9.76981 -11.799328,-11.55362 -4.390448,-2.16803 -9.878508,-2.36012 -9.521785,-1.86614 z"
       class="st7"
       inkscape:connector-curvature="0"
       style="fill:none;stroke:#00ffff;stroke-width:0.79374999;stroke-miterlimit:4;stroke-dasharray:none;stroke-opacity:1" />
    <path
       id="path1691"
       d="m 26.216697,235.49582 c 0,0 -6.366151,5.32399 -8.20465,11.47129 -1.8385,6.1473 -1.070172,13.61186 -2.524507,14.57238 -2.030583,1.34472 -4.335568,-6.50406 -5.103896,-7.3548 -1.1799337,-1.28983 -5.2410977,-4.66536 -5.4880604,-5.26911 -0.2744027,-0.60375 8.1223294,-9.76981 11.7993284,-11.55362 4.390448,-2.16803 9.878508,-2.36012 9.521785,-1.86614 z"
       class="st7"
       inkscape:connector-curvature="0"
       style="fill:none;stroke:#00ffff;stroke-width:0.79374999;stroke-miterlimit:4;stroke-dasharray:none;stroke-opacity:0.90196079" />
    <path
       style="fill:none;fill-opacity:1;stroke:#00ffff;stroke-width:0.52916667;stroke-miterlimit:4;stroke-dasharray:none;stroke-opacity:0.91414142"
       inkscape:connector-curvature="0"
       class="st6"
       d="m 43.783542,286.23659 c 0.411605,-0.21954 0.740888,-0.60375 0.823209,-1.12518 0.164642,-0.85074 -0.411604,-1.64659 -1.262254,-1.81125 -0.768328,-0.13722 -1.536656,0.32932 -1.756179,1.07029 -1.042732,-0.30188 -2.085463,-0.49398 -3.155634,-0.57631 0.05488,-0.76841 -0.493926,-1.48194 -1.289695,-1.61916 -0.850649,-0.16466 -1.646418,0.41165 -1.81106,1.26239 -0.08232,0.49398 0.08232,0.98796 0.384165,1.34472 -0.411605,0.21955 -0.740888,0.60375 -0.823209,1.12518 -0.164642,0.85074 0.411604,1.64659 1.262253,1.81125 0.768328,0.13722 1.481777,-0.30187 1.728739,-1.0154 1.042732,0.27444 2.112904,0.46655 3.183075,0.57631 -0.02744,0.74097 0.521366,1.42705 1.289694,1.56427 0.85065,0.16466 1.646418,-0.41165 1.81106,-1.26239 0.109762,-0.52142 -0.05488,-0.98796 -0.384164,-1.34472 z"
       id="path1699" />
    <path
       style="fill:none;stroke:#00ffff;stroke-width:0.5291667;stroke-miterlimit:4;stroke-dasharray:none;stroke-opacity:1"
       inkscape:connector-curvature="0"
       class="st7"
       d="m 35.875682,254.25525 c -0.576246,-1.26238 1.399455,-3.32064 4.527649,-3.32064 3.128195,0 5.103896,2.05826 4.52765,3.32064 -0.548806,1.28984 -2.551948,1.70149 -4.52765,1.72894 -2.003141,-0.0275 -3.978843,-0.4391 -4.527649,-1.72894 z"
       id="path1970" />
    <path
       style="fill:#00ffff;fill-opacity:1;stroke-width:0.99999994"
       d="M 206.4707 109.14844 A 18.253202 18.255186 0 0 0 188.2168 127.40234 A 18.253202 18.255186 0 0 0 206.4707 145.6582 A 18.253202 18.255186 0 0 0 224.72461 127.40234 A 18.253202 18.255186 0 0 0 206.4707 109.14844 z M 205.375 116.68359 A 8.2384404 8.2393361 0 0 1 213.61328 124.92383 A 8.2384404 8.2393361 0 0 1 205.375 133.16211 A 8.2384404 8.2393361 0 0 1 197.13672 124.92383 A 8.2384404 8.2393361 0 0 1 205.375 116.68359 z "
       transform="matrix(0.26458333,0,0,0.26458333,0,217.62498)"
       id="ellipse2032" />
    <path
       id="path2062"
       d="m 25.524541,246.50384 a 4.829493,4.8300179 0 0 1 4.829678,4.82968 4.829493,4.8300179 0 0 1 -4.829678,4.83019 4.829493,4.8300179 0 0 1 -4.82968,-4.83019 4.829493,4.8300179 0 0 1 4.82968,-4.82968 z m 0.289904,1.99367 a 2.179754,2.179991 0 0 0 -2.179711,2.18023 2.179754,2.179991 0 0 0 2.179711,2.17971 2.179754,2.179991 0 0 0 2.179712,-2.17971 2.179754,2.179991 0 0 0 -2.179712,-2.18023 z"
       style="fill:#00ffff;fill-opacity:1;stroke-width:0.26458332"
       inkscape:connector-curvature="0" />
  </g>
  
</svg>
