
<svg 
  version="1.1" 
  viewBox="0 0 79.374998 79.375002" xmlns="http://www.w3.org/2000/svg" 
>
 
 <g transform="translate(0 -217.62)">
  
  <g fill="none" stroke="#fdf5e6">
   <path class="st1" d="m64.402 242.92c-0.91274-1.8635-3.3237-5.4371-4.4701-7.4592-2.8661-3.9128-5.3212-7.0848-19.803-7.0848v0.0302h-0.27152 0.27152v-0.0604c-14.18 0-17.817 2.2876-20.684 7.2674-1.1766 2.0221-3.921 4.9859-4.0718 7.6116-0.12068 2.1127-1.3607 4.3762-0.99866 6.7907 0.48271 3.1388-0.37276 6.2474 0.10996 9.1749 0.3922 2.3843 3.6203 4.3158 3.922 6.5794 0.84474 6.1569 6.939 8.9637 21.722 8.9637v0.12073h-0.3017 0.3017v-0.12073c14.783 0 20.636-2.837 21.451-8.9938 0.3017-2.2636 3.3186-4.2253 3.7108-6.5794 0.48271-2.8974-0.5553-6.1886-0.07259-9.3274 0.20689-2.9291-0.54953-4.2073-0.81611-6.913z" stroke-width=".79375"/>
   <path class="st2" d="m56.288 278.54c-10.348 3.8028-21.692 3.8028-32.04 0-0.93526-0.36216-1.7197-1.4788-1.7197-2.4446v-2.4748c0-0.96578 0.75424-1.4487 1.7197-1.0865 10.348 3.8028 21.692 3.8028 32.04 0 0.93525-0.36217 1.7197 0.12072 1.7197 1.0865v2.4748c0 0.96579-0.78441 2.0825-1.7197 2.4446z" stroke-width=".52917"/>
   <path d="m35.225 249.31c-3.979 1.1587-7.0238 3.6444-9.1551 6.2601-3.0169 3.6519-2.8054 5.1613-2.8054 8.6622 0 12.706 5.6539 8.6746 7.6502 10.184 6.5638 0.27859 7.4167 0.052 10.053 0.23519 2.6109-0.0811 5.8781-5e-3 8.4681-0.64664 0.96571-1.1266 7.4982 2.9339 7.4982-9.7722 0-3.501 0.21095-5.0104-2.806-8.6622-2.0884-2.5897-5.0866-5.0528-9.0173-6.226 0.16808 0.40726 0.18543 0.80902 0.02712 1.156-0.60339 1.4185-2.8058 1.8708-4.978 1.901-2.2024-0.0302-4.3746-0.48254-4.978-1.901-0.16275-0.35662-0.13785-0.77121 0.0436-1.1901z" stroke-width=".52917"/>
  </g>
  <g stroke-width=".26458">
   <path class="st8" d="m34.126 263.81s-1.5085 4.5271-0.48271 6.519l-1.3878-0.63381s1.0559-4.5573 1.8705-5.8852z" fill="#fdf5e6"/>
   <path class="st8" d="m46.103 263.81s1.5085 4.5271 0.48271 6.519l1.3878-0.63381s-1.0861-4.5573-1.8705-5.8852z" fill="#fdf5e6"/>
   <path d="m40.099 258.86c1.599 0 6.6675 3.4708 6.7881 7.8168v-0.21127c0-4.4366-4.1031-8.0281-6.7881-8.0281s-6.7881 3.5915-6.7881 8.0281v0.21127c0.12068-4.3158 5.1892-7.8168 6.7881-7.8168z" fill="#fdf5e6"/>
  </g>
  <path class="st3" d="m23.385 256.72s-2.8359 1.4185-4.8573 0.57343h0.09051 0.12068c-2.1119-1.0563-2.8359-4.1046-2.8359-4.1046s1.6292 5.342 7.482 3.5312z" fill="none" stroke="#fdf5e6" stroke-width=".26458"/>
  <path class="st3" d="m56.481 256.72s2.8359 1.4185 4.8573 0.57343h0.12068 0.09051c2.1119-1.0563 2.6247-4.1046 2.6247-4.1046s-1.8705 5.342-7.6932 3.5312z" fill="none" stroke="#fdf5e6" stroke-width=".26458"/>
  <g fill="#ccac8d" stroke-width=".26458">
   <path class="st3" d="m40.009 240.03z"/>
   <path class="st3" d="m53.404 237.37c0.09052 0.0302 0.18102 0.0302 0.27152 0.0604 0 0-0.09051-0.0301-0.27152-0.0604z"/>
   <path class="st3" d="m53.343 237.34h0.06034c0 0.0303-0.03017 0.0303-0.06034 0z"/>
  </g>
  <g fill="none">
   <path class="st7" d="m54.882 229.98s6.9993 5.855 9.0207 12.616c2.0214 6.7605 1.1766 14.97 2.7756 16.026 2.2325 1.4789 4.7668-7.1528 5.6115-8.0884 1.2973-1.4185 5.7624-5.1307 6.0339-5.7947 0.3017-0.66398-8.9302-10.744-12.973-12.706-4.8271-2.3843-10.861-2.5955-10.469-2.0523z" stroke="#fdf5e6" stroke-width=".79375"/>
   <path class="st7" d="m24.562 229.98s-6.9993 5.855-9.0207 12.616c-2.0214 6.7605-1.1766 14.97-2.7756 16.026-2.2325 1.4789-4.7668-7.1528-5.6115-8.0884-1.2973-1.4185-5.7624-5.1307-6.0339-5.7947-0.30169-0.66398 8.9302-10.744 12.973-12.706 4.8271-2.3843 10.861-2.5955 10.469-2.0523z" stroke="#fdf5e6" stroke-width=".79375"/>
   <path class="st6" d="m43.876 285.78c0.45254-0.24144 0.81458-0.66398 0.90508-1.2374 0.18102-0.9356-0.45254-1.8108-1.3878-1.9919-0.84475-0.1509-1.6895 0.36217-1.9308 1.177-1.1464-0.33199-2.2929-0.54325-3.4695-0.63379 0.06034-0.84506-0.54305-1.6298-1.418-1.7807-0.93525-0.18109-1.8102 0.45271-1.9912 1.3883-0.09051 0.54325 0.09051 1.0865 0.42237 1.4788-0.45254 0.24145-0.81458 0.66398-0.90508 1.2374-0.18102 0.9356 0.45254 1.8108 1.3878 1.9919 0.84474 0.1509 1.6292-0.33199 1.9007-1.1167 1.1464 0.30182 2.3231 0.51309 3.4997 0.6338-0.03017 0.81488 0.57322 1.5694 1.418 1.7203 0.93526 0.18108 1.8102-0.45271 1.9912-1.3883 0.12068-0.57343-0.06034-1.0865-0.42237-1.4788z" stroke="#fdf5e6" stroke-width=".52917"/>
   <path class="st7" d="m35.181 250.61c-0.63356-1.3883 1.5386-3.6519 4.978-3.6519 3.4393 0 5.6115 2.2636 4.978 3.6519-0.60339 1.4185-2.8058 1.8712-4.978 1.9014-2.2024-0.0303-4.3746-0.4829-4.978-1.9014z" stroke="#fdf5e6" stroke-width=".52917"/>
  </g>
  <path d="m55.8 242.08a5.3098 5.3118 0 0 0 -5.31 5.3114 5.3098 5.3118 0 0 0 5.31 5.312 5.3098 5.3118 0 0 0 5.31 -5.312 5.3098 5.3118 0 0 0 -5.31 -5.3114zm-0.31874 2.1925a2.3966 2.3974 0 0 1 2.3965 2.3977 2.3966 2.3974 0 0 1 -2.3965 2.3971 2.3966 2.3974 0 0 1 -2.3965 -2.3971 2.3966 2.3974 0 0 1 2.3965 -2.3977z" fill="#fdf5e6" stroke-width=".26458"/>
  <path d="m23.801 242.08a5.3098 5.3118 0 0 1 5.31 5.3114 5.3098 5.3118 0 0 1 -5.31 5.312 5.3098 5.3118 0 0 1 -5.31 -5.312 5.3098 5.3118 0 0 1 5.31 -5.3114zm0.31874 2.1925a2.3966 2.3974 0 0 0 -2.3965 2.3977 2.3966 2.3974 0 0 0 2.3965 2.3971 2.3966 2.3974 0 0 0 2.3965 -2.3971 2.3966 2.3974 0 0 0 -2.3965 -2.3977z" fill="#fdf5e6" stroke-width=".26458"/>
 </g>
 
</svg>
