<?xml version="1.0" encoding="UTF-8" standalone="no"?>
<svg
   xmlns:dc="http://purl.org/dc/elements/1.1/"
   xmlns:cc="http://creativecommons.org/ns#"
   xmlns:rdf="http://www.w3.org/1999/02/22-rdf-syntax-ns#"
   xmlns:svg="http://www.w3.org/2000/svg"
   xmlns="http://www.w3.org/2000/svg"
   xmlns:sodipodi="http://sodipodi.sourceforge.net/DTD/sodipodi-0.dtd"
   xmlns:inkscape="http://www.inkscape.org/namespaces/inkscape"
   id="svg-puzzle"
   version="1.1"
   viewBox="0 0 26.458333 26.458334"
   sodipodi:docname="puzzle.svg"
   inkscape:version="0.92.2 5c3e80d, 2017-08-06">
  <metadata
     id="metadata1037">
    <rdf:RDF>
      <cc:Work
         rdf:about="">
        <dc:format>image/svg+xml</dc:format>
        <dc:type
           rdf:resource="http://purl.org/dc/dcmitype/StillImage" />
        <dc:title></dc:title>
      </cc:Work>
    </rdf:RDF>
  </metadata>
  <defs
     id="defs1035" />
  <sodipodi:namedview
     pagecolor="#ffffff"
     bordercolor="#666666"
     borderopacity="1"
     objecttolerance="10"
     gridtolerance="10"
     guidetolerance="10"
     inkscape:pageopacity="0"
     inkscape:pageshadow="2"
     inkscape:window-width="858"
     inkscape:window-height="774"
     id="namedview1033"
     showgrid="false"
     inkscape:zoom="8.9196848"
     inkscape:cx="20.067973"
     inkscape:cy="13.229167"
     inkscape:window-x="541"
     inkscape:window-y="7"
     inkscape:window-maximized="0"
     inkscape:current-layer="svg-puzzle" />
  <g
     id="g1614">
    <path
       id="svg-puzzle1"
       style="fill:#5a5a5a;stroke:#282828;stroke-width:0.28859347;stroke-opacity:1;fill-opacity:1"
       d="M 0.14430114,0.14590622 V 13.229973 H 4.3938156 A 3.3044276,3.3042261 0 0 1 3.3822942,10.851331 3.3044276,3.3042261 0 0 1 6.6867339,7.547093 3.3044276,3.3042261 0 0 1 9.9911736,10.851331 3.3044276,3.3042261 0 0 1 8.9801633,13.229973 H 13.229166 V 9.3783514 A 3.3044276,3.3042261 0 0 0 15.146406,9.9921781 3.3044276,3.3042261 0 0 0 18.450845,6.68794 3.3044276,3.3042261 0 0 0 15.146406,3.3837018 3.3044276,3.3042261 0 0 0 13.229166,3.9970175 V 0.14590622 Z"
       inkscape:connector-curvature="0" />
    <path
       id="svg-puzzle2"
       style="fill:#5a5a5a;stroke:#282828;stroke-width:0.28859347;stroke-opacity:1;fill-opacity:1"
       d="m 13.229166,13.229973 v 4.319277 a 3.3044276,3.3042261 0 0 0 -2.444723,-1.081481 3.3044276,3.3042261 0 0 0 -3.3044391,3.304239 3.3044276,3.3042261 0 0 0 3.3044391,3.304238 3.3044276,3.3042261 0 0 0 2.444723,-1.080969 v 4.318765 H 26.314032 V 13.229973 h -4.060397 a 3.3044276,3.3042261 0 0 1 0.822404,2.180849 3.3044276,3.3042261 0 0 1 -3.30444,3.304238 3.3044276,3.3042261 0 0 1 -3.304439,-3.304238 3.3044276,3.3042261 0 0 1 0.822404,-2.180849 z"
       inkscape:connector-curvature="0" />
    <path
       id="svg-puzzle3"
       style="fill:#323232;stroke:#282828;stroke-width:0.26168901;stroke-miterlimit:4;stroke-dasharray:none;stroke-opacity:1;fill-opacity:1"
       d="M 13.229166,0.14590622 V 3.9970175 a 3.3044276,3.3042261 0 0 1 1.91724,-0.6133157 3.3044276,3.3042261 0 0 1 3.304439,3.3042382 3.3044276,3.3042261 0 0 1 -3.304439,3.3042381 3.3044276,3.3042261 0 0 1 -1.91724,-0.6138267 v 3.8516216 h 4.060398 a 3.3044276,3.3042261 0 0 0 -0.822404,2.180849 3.3044276,3.3042261 0 0 0 3.304439,3.304238 3.3044276,3.3042261 0 0 0 3.30444,-3.304238 3.3044276,3.3042261 0 0 0 -0.822404,-2.180849 h 4.060397 V 0.14590622 Z"
       inkscape:connector-curvature="0" />
    <path
       id="svg-puzzle4"
       style="fill:#323232;stroke:#282828;stroke-width:0.28859347;stroke-opacity:1;fill-opacity:1"
       d="m 6.6570885,7.547093 a 3.3044276,3.3042261 0 0 0 -3.2747943,3.304238 3.3044276,3.3042261 0 0 0 1.0115214,2.378642 H 0.14430114 V 26.314042 H 13.229166 v -4.318765 a 3.3044276,3.3042261 0 0 1 -2.444723,1.080969 3.3044276,3.3042261 0 0 1 -3.3044391,-3.304238 3.3044276,3.3042261 0 0 1 3.3044391,-3.304239 3.3044276,3.3042261 0 0 1 2.444723,1.081481 V 13.229973 H 8.9801633 a 3.3044276,3.3042261 0 0 0 1.0110103,-2.378642 3.3044276,3.3042261 0 0 0 -3.3044397,-3.304238 3.3044276,3.3042261 0 0 0 -0.029645,0 z"
       inkscape:connector-curvature="0" />
  </g>
</svg>
