
<svg
   
   xmlns:svg="http://www.w3.org/2000/svg"
   xmlns="http://www.w3.org/2000/svg"
   id="svg-puzzle"
   version="1.1"
   viewBox="0 0 26.458333 26.458334"
   >
  
    <g
       transform="matrix(0.98909221,0,0,0.9890319,0.1443014,0.14429238)"
       id="g893">
      <path
         id="svg-puzzle1"
         style="fill:#4d4d4d;stroke:#ffffff;stroke-width:0.291785;stroke-opacity:1"
         d="M -2.6671875e-7,-4.5748698e-8 V 13.229166 H 4.2963782 A 3.3408691,3.3408691 0 0 1 3.2737017,10.824145 3.3408691,3.3408691 0 0 1 6.614583,7.4832639 3.3408691,3.3408691 0 0 1 9.9554643,10.824145 3.3408691,3.3408691 0 0 1 8.9333045,13.229166 H 13.229166 V 9.3348305 A 3.3408691,3.3408691 0 0 0 15.167549,9.9554644 3.3408691,3.3408691 0 0 0 18.50843,6.6145831 3.3408691,3.3408691 0 0 0 15.167549,3.2737018 3.3408691,3.3408691 0 0 0 13.229166,3.893819 V -4.5748698e-8 Z" />
      <path
         id="svg-puzzle2"
         style="fill:#4d4d4d;stroke:#ffffff;stroke-width:0.291785;stroke-opacity:1"
         d="m 13.229166,13.229166 v 4.367176 a 3.3408691,3.3408691 0 0 0 -2.471684,-1.093474 3.3408691,3.3408691 0 0 0 -3.3408808,3.340882 3.3408691,3.3408691 0 0 0 3.3408808,3.340881 3.3408691,3.3408691 0 0 0 2.471684,-1.092957 v 4.366659 H 26.458333 V 13.229166 h -4.105176 a 3.3408691,3.3408691 0 0 1 0.831474,2.205034 3.3408691,3.3408691 0 0 1 -3.340882,3.340881 3.3408691,3.3408691 0 0 1 -3.340881,-3.340881 3.3408691,3.3408691 0 0 1 0.831474,-2.205034 z" />
      <path
         id="svg-puzzle3"
         style="fill:#808080;stroke:#ffffff;stroke-width:0.264583;stroke-miterlimit:4;stroke-dasharray:none;stroke-opacity:1"
         d="M 13.229166,-4.5748698e-8 V 3.893819 A 3.3408691,3.3408691 0 0 1 15.167549,3.2737018 3.3408691,3.3408691 0 0 1 18.50843,6.6145831 3.3408691,3.3408691 0 0 1 15.167549,9.9554644 3.3408691,3.3408691 0 0 1 13.229166,9.3348305 v 3.8943355 h 4.105176 a 3.3408691,3.3408691 0 0 0 -0.831474,2.205034 3.3408691,3.3408691 0 0 0 3.340881,3.340881 3.3408691,3.3408691 0 0 0 3.340882,-3.340881 3.3408691,3.3408691 0 0 0 -0.831474,-2.205034 h 4.105176 V -4.5748698e-8 Z" />
      <path
         id="svg-puzzle4"
         style="fill:#808080;stroke:#ffffff;stroke-width:0.291785;stroke-opacity:1"
         d="m 6.5846107,7.4832639 a 3.3408691,3.3408691 0 0 0 -3.310909,3.3408811 3.3408691,3.3408691 0 0 0 1.0226765,2.405021 H -2.6671875e-7 V 26.458333 H 13.229166 v -4.366659 a 3.3408691,3.3408691 0 0 1 -2.471684,1.092957 3.3408691,3.3408691 0 0 1 -3.3408808,-3.340881 3.3408691,3.3408691 0 0 1 3.3408808,-3.340882 3.3408691,3.3408691 0 0 1 2.471684,1.093474 V 13.229166 H 8.9333045 A 3.3408691,3.3408691 0 0 0 9.9554643,10.824145 3.3408691,3.3408691 0 0 0 6.614583,7.4832639 a 3.3408691,3.3408691 0 0 0 -0.029972,0 z" />
    </g>
  
</svg>
