<?xml version="1.0" encoding="UTF-8" standalone="no"?>
<svg
   xmlns:dc="http://purl.org/dc/elements/1.1/"
   xmlns:cc="http://creativecommons.org/ns#"
   xmlns:rdf="http://www.w3.org/1999/02/22-rdf-syntax-ns#"
   xmlns:svg="http://www.w3.org/2000/svg"
   xmlns="http://www.w3.org/2000/svg"
   xmlns:sodipodi="http://sodipodi.sourceforge.net/DTD/sodipodi-0.dtd"
   xmlns:inkscape="http://www.inkscape.org/namespaces/inkscape"
   sodipodi:docname="redux-logo-nav.svg"
   inkscape:version="1.0beta2 (2b71d25, 2019-12-03)"
   id="svg919"
   version="1.1"
   viewBox="0 0 26.458333 26.458334"
   >
  <defs
     id="defs913" />
  <sodipodi:namedview
     inkscape:window-maximized="0"
     inkscape:window-y="166"
     inkscape:window-x="0"
     inkscape:window-height="809"
     inkscape:window-width="1440"
     units="px"
     showgrid="false"
     inkscape:document-rotation="0"
     inkscape:current-layer="layer1"
     inkscape:document-units="px"
     inkscape:cy="50"
     inkscape:cx="53.482142"
     inkscape:zoom="5.6"
     inkscape:pageshadow="2"
     inkscape:pageopacity="0.0"
     borderopacity="1.0"
     bordercolor="#666666"
     pagecolor="#ffffff"
     id="base" />
  <metadata
     id="metadata916">
    <rdf:RDF>
      <cc:Work
         rdf:about="">
        <dc:format>image/svg+xml</dc:format>
        <dc:type
           rdf:resource="http://purl.org/dc/dcmitype/StillImage" />
        <dc:title></dc:title>
      </cc:Work>
    </rdf:RDF>
  </metadata>
  <g
     id="layer1"
     inkscape:groupmode="layer"
     inkscape:label="Layer 1">
    <path
       id="path1008"
       d="m 17.904925,17.532382 c 0.876252,-0.09011 1.540993,-0.840938 1.510778,-1.741943 -0.03022,-0.901005 -0.785604,-1.621808 -1.692071,-1.621808 h -0.06043 c -0.936683,0.03003 -1.661856,0.810904 -1.63164,1.741942 0.03022,0.450502 0.211509,0.840937 0.483449,1.111239 -1.027329,2.012245 -2.598538,3.483885 -4.955351,4.715259 C 9.958241,22.578009 8.2963855,22.878343 6.63453,22.668109 5.2748253,22.487908 4.217281,21.887238 3.5525389,20.896133 2.5856412,19.424492 2.4949945,17.832716 3.3108144,16.240942 3.8849099,15.099668 4.7913764,14.258731 5.365472,13.838262 5.2446097,13.447827 5.0633164,12.787089 4.9726697,12.306554 0.59141479,15.46007 1.0446481,19.724826 2.3741324,21.737071 c 0.9971132,1.501674 3.0215551,2.432713 5.2575058,2.432713 0.6043111,0 1.2086221,-0.06007 1.812933,-0.210235 3.8675908,-0.750837 6.7984988,-3.033382 8.4603538,-6.427167 z"
       inkscape:connector-curvature="0"
       style="fill:none;stroke:#fdf5e6;stroke-width:0.26458333;stroke-miterlimit:4;stroke-dasharray:none;stroke-opacity:1" />
    <path
       id="path1010"
       d="M 23.222863,13.808229 C 20.926481,11.135247 17.542339,9.6636064 13.674749,9.6636064 h -0.48345 C 12.919359,9.1230035 12.345264,8.7626012 11.710738,8.7626012 h -0.06044 c -0.936682,0.030033 -1.6618553,0.8109047 -1.63164,1.7419428 0.03022,0.901005 0.785605,1.621809 1.692071,1.621809 h 0.06044 c 0.664742,-0.03004 1.238837,-0.450503 1.480562,-1.021139 h 0.54388 c 2.296381,0 4.471901,0.660737 6.435912,1.952176 1.510778,0.991106 2.598538,2.282547 3.202848,3.844288 0.513665,1.261407 0.48345,2.492781 -0.06043,3.543952 -0.846036,1.591776 -2.266166,2.462747 -4.139531,2.462747 -1.208621,0 -2.356813,-0.360402 -2.961124,-0.630703 -0.33237,0.300335 -0.936682,0.78087 -1.3597,1.081206 1.29927,0.600669 2.628753,0.931038 3.897806,0.931038 2.900693,0 5.045998,-1.591776 5.861818,-3.18355 0.876251,-1.741944 0.81582,-4.745293 -1.450347,-7.298139 z"
       inkscape:connector-curvature="0"
       style="fill:none;stroke:#fdf5e6;stroke-width:0.26458333;stroke-miterlimit:4;stroke-dasharray:none;stroke-opacity:1" />
    <path
       id="path1012"
       d="m 7.8733627,18.042951 c 0.030215,0.901005 0.7856044,1.621809 1.6920703,1.621809 h 0.060435 c 0.936682,-0.03004 1.661855,-0.810904 1.63164,-1.741943 -0.03022,-0.901005 -0.785605,-1.621809 -1.6920715,-1.621809 h -0.060435 c -0.060435,0 -0.1510782,0 -0.2115097,0.03004 C 8.0546549,14.288765 7.5409904,12.066286 7.7222838,9.6636075 7.843146,7.8615975 8.447457,6.2998558 9.5050016,5.0084156 10.381252,3.8971762 12.073323,3.3565733 13.221514,3.3265399 c 3.202849,-0.060067 4.562548,3.9043542 4.653195,5.4961295 0.392802,0.0901 1.057545,0.3003352 1.510778,0.4505019 C 19.0229,4.4077457 16.001344,1.8849321 13.100651,1.8849321 c -2.719399,0 -5.2272894,1.9521772 -6.2244027,4.8353926 C 5.486333,10.564612 6.3927996,14.258732 8.0848704,17.171981 7.9337927,17.382215 7.843146,17.712584 7.8733616,18.042952 Z"
       inkscape:connector-curvature="0"
       style="fill:none;stroke:#fdf5e6;stroke-width:0.26458333;stroke-miterlimit:4;stroke-dasharray:none;stroke-opacity:1" />
  </g>
</svg>
